<svg width="192" height="47" viewBox="0 0 192 47" fill="none" xmlns="http://www.w3.org/2000/svg">
<g clip-path="url(#clip0_422_975)">
<path d="M40.0117 34.1467H41.731C42.0175 34.1467 42.2249 34.2122 42.3532 34.3432C42.4842 34.4715 42.5497 34.6789 42.5497 34.9654V35.3748C42.5497 35.6613 42.4842 35.8701 42.3532 36.0011C42.2249 36.1294 42.0175 36.1935 41.731 36.1935H40.7486V37.0122H40.0117V34.1467ZM41.8129 34.9654C41.8129 34.8017 41.731 34.7198 41.5673 34.7198H40.7486V35.6204H41.5673C41.731 35.6204 41.8129 35.5385 41.8129 35.3748V34.9654Z" fill="#434343"/>
<path d="M44.9238 34.9245C44.9238 34.7608 44.8419 34.6789 44.6782 34.6789H43.9823C43.8185 34.6789 43.7367 34.7608 43.7367 34.9245V36.2344C43.7367 36.3982 43.8185 36.48 43.9823 36.48H44.6782C44.8419 36.48 44.9238 36.3982 44.9238 36.2344V34.9245ZM45.6606 36.2344C45.6606 36.521 45.5951 36.7298 45.4641 36.8607C45.3359 36.989 45.1284 37.0531 44.8419 37.0531H43.8185C43.532 37.0531 43.3232 36.989 43.1922 36.8607C43.064 36.7298 42.9998 36.521 42.9998 36.2344V34.9245C42.9998 34.638 43.064 34.4306 43.1922 34.3023C43.3232 34.1713 43.532 34.1058 43.8185 34.1058H44.8419C45.1284 34.1058 45.3359 34.1713 45.4641 34.3023C45.5951 34.4306 45.6606 34.638 45.6606 34.9245V36.2344Z" fill="#434343"/>
<path d="M48.4461 36.9713C47.8375 37.0258 47.3327 37.0531 46.9315 37.0531C46.6641 37.0531 46.4676 36.9904 46.342 36.8648C46.2165 36.7393 46.1537 36.5428 46.1537 36.2754V34.9654C46.1537 34.6789 46.2179 34.4715 46.3461 34.3432C46.4771 34.2122 46.6859 34.1467 46.9724 34.1467H48.4461V34.7198H47.1362C46.9724 34.7198 46.8906 34.8017 46.8906 34.9654V36.2754C46.8906 36.3381 46.9083 36.3886 46.9438 36.4268C46.982 36.4623 47.0298 36.48 47.0871 36.48C47.1444 36.48 47.2071 36.48 47.2754 36.48C47.3436 36.4773 47.4145 36.4746 47.4882 36.4719C47.5619 36.4691 47.6356 36.4664 47.7093 36.4637C47.7857 36.4609 47.8826 36.4555 47.9999 36.4473C48.12 36.4391 48.2687 36.4296 48.4461 36.4186V36.9713Z" fill="#434343"/>
<path d="M51.1483 36.9713C50.5397 37.0258 50.0349 37.0531 49.6337 37.0531C49.3663 37.0531 49.1698 36.9904 49.0442 36.8648C48.9187 36.7393 48.8559 36.5428 48.8559 36.2754V34.9654C48.8559 34.6789 48.9201 34.4715 49.0483 34.3432C49.1793 34.2122 49.3881 34.1467 49.6746 34.1467H51.1483V34.7198H49.8384C49.6746 34.7198 49.5928 34.8017 49.5928 34.9654V36.2754C49.5928 36.3381 49.6105 36.3886 49.646 36.4268C49.6842 36.4623 49.7319 36.48 49.7893 36.48C49.8466 36.48 49.9093 36.48 49.9776 36.48C50.0458 36.4773 50.1167 36.4746 50.1904 36.4719C50.2641 36.4691 50.3378 36.4664 50.4115 36.4637C50.4879 36.4609 50.5848 36.4555 50.7021 36.4473C50.8222 36.4391 50.9709 36.4296 51.1483 36.4186V36.9713Z" fill="#434343"/>
<path d="M54.137 37.0122H53.4002V35.252L52.4178 37.0122H51.64V34.1467H52.3768V35.907L53.3593 34.1467H54.137V37.0122Z" fill="#434343"/>
<path d="M56.5541 37.0122V35.252L55.5717 37.0122H54.7939V34.1467H55.5308V35.907L56.5132 34.1467H57.291V37.0122H56.5541ZM55.8173 33.9421C55.4625 33.9421 55.2851 33.7647 55.2851 33.4099V33.2871H55.8173V33.3894C55.8173 33.4304 55.831 33.4645 55.8582 33.4918C55.8855 33.5191 55.9196 33.5327 55.9606 33.5327H56.0834C56.1243 33.5327 56.1584 33.5191 56.1857 33.4918C56.213 33.4645 56.2267 33.4304 56.2267 33.3894V33.2871H56.7588V33.4099C56.7588 33.7647 56.5814 33.9421 56.2267 33.9421H55.8173Z" fill="#434343"/>
<path d="M60.1583 36.9713C59.5498 37.0258 59.0449 37.0531 58.6437 37.0531C58.3763 37.0531 58.1798 36.9904 58.0543 36.8648C57.9287 36.7393 57.866 36.5428 57.866 36.2754V34.9654C57.866 34.6789 57.9301 34.4715 58.0584 34.3432C58.1894 34.2122 58.3981 34.1467 58.6847 34.1467H60.1583V34.7198H58.8484C58.6847 34.7198 58.6028 34.8017 58.6028 34.9654V36.2754C58.6028 36.3381 58.6206 36.3886 58.656 36.4268C58.6942 36.4623 58.742 36.48 58.7993 36.48C58.8566 36.48 58.9194 36.48 58.9876 36.48C59.0558 36.4773 59.1268 36.4746 59.2005 36.4719C59.2741 36.4691 59.3478 36.4664 59.4215 36.4637C59.4979 36.4609 59.5948 36.4555 59.7122 36.4473C59.8322 36.4391 59.981 36.4296 60.1583 36.4186V36.9713Z" fill="#434343"/>
<path d="M62.7377 34.1058C62.806 34.1058 62.9288 34.1195 63.1062 34.1467V34.6994H62.9424C62.9015 34.6994 62.8646 34.713 62.8319 34.7403C62.7991 34.7649 62.7746 34.7922 62.7582 34.8222L62.3693 35.559L63.1676 37.0122H62.3898L61.7553 35.8456H61.3869V37.0122H60.65V34.1467H61.3869V35.2725H61.7553L62.1646 34.4947C62.2247 34.3801 62.2984 34.2873 62.3857 34.2163C62.4758 34.1427 62.5931 34.1058 62.7377 34.1058Z" fill="#434343"/>
<path d="M66.0731 37.0122H65.3363V35.252L64.3539 37.0122H63.5761V34.1467H64.3129V35.907L65.2954 34.1467H66.0731V37.0122Z" fill="#434343"/>
<path d="M68.4902 37.0122V35.252L67.5078 37.0122H66.73V34.1467H67.4669V35.907L68.4493 34.1467H69.2271V37.0122H68.4902ZM67.7534 33.9421C67.3986 33.9421 67.2212 33.7647 67.2212 33.4099V33.2871H67.7534V33.3894C67.7534 33.4304 67.7671 33.4645 67.7943 33.4918C67.8216 33.5191 67.8557 33.5327 67.8967 33.5327H68.0195C68.0604 33.5327 68.0945 33.5191 68.1218 33.4918C68.1491 33.4645 68.1628 33.4304 68.1628 33.3894V33.2871H68.6949V33.4099C68.6949 33.7647 68.5175 33.9421 68.1628 33.9421H67.7534Z" fill="#434343"/>
<path d="M71.1112 36.4186C71.7771 36.4596 72.2274 36.48 72.4621 36.48C72.5248 36.48 72.574 36.4623 72.6094 36.4268C72.6476 36.3886 72.6667 36.3381 72.6667 36.2754V35.8865H71.5779V35.3134H72.6667V34.9654C72.6667 34.8017 72.5849 34.7198 72.4211 34.7198H71.1521V34.1467H72.5849C72.8714 34.1467 73.0788 34.2122 73.2071 34.3432C73.3381 34.4715 73.4036 34.6789 73.4036 34.9654V36.2754C73.4036 36.5428 73.3408 36.7393 73.2153 36.8648C73.0897 36.9904 72.8932 37.0531 72.6258 37.0531C72.2165 37.0531 71.7116 37.0258 71.1112 36.9713V36.4186Z" fill="#434343"/>
<path d="M76.0648 34.1058C76.1331 34.1058 76.2559 34.1195 76.4333 34.1467V34.6994H76.2695C76.2286 34.6994 76.1917 34.713 76.159 34.7403C76.1262 34.7649 76.1017 34.7922 76.0853 34.8222L75.6964 35.559L76.4947 37.0122H75.7169L75.0824 35.8456H74.714V37.0122H73.9771V34.1467H74.714V35.2725H75.0824L75.4917 34.4947C75.5518 34.3801 75.6255 34.2873 75.7128 34.2163C75.8028 34.1427 75.9202 34.1058 76.0648 34.1058Z" fill="#434343"/>
<path d="M78.7453 34.9245C78.7453 34.7608 78.6634 34.6789 78.4997 34.6789H77.8038C77.64 34.6789 77.5582 34.7608 77.5582 34.9245V36.2344C77.5582 36.3982 77.64 36.48 77.8038 36.48H78.4997C78.6634 36.48 78.7453 36.3982 78.7453 36.2344V34.9245ZM79.4821 36.2344C79.4821 36.521 79.4166 36.7298 79.2856 36.8607C79.1574 36.989 78.95 37.0531 78.6634 37.0531H77.64C77.3535 37.0531 77.1447 36.989 77.0137 36.8607C76.8855 36.7298 76.8213 36.521 76.8213 36.2344V34.9245C76.8213 34.638 76.8855 34.4306 77.0137 34.3023C77.1447 34.1713 77.3535 34.1058 77.64 34.1058H78.6634C78.95 34.1058 79.1574 34.1713 79.2856 34.3023C79.4166 34.4306 79.4821 34.638 79.4821 34.9245V36.2344Z" fill="#434343"/>
<path d="M82.5542 37.0122H81.8173V35.8456H80.794V37.0122H80.0571V34.1467H80.794V35.2725H81.8173V34.1467H82.5542V37.0122Z" fill="#434343"/>
<path d="M85.0531 34.9245C85.0531 34.7608 84.9713 34.6789 84.8075 34.6789H84.1116C83.9479 34.6789 83.866 34.7608 83.866 34.9245V36.2344C83.866 36.3982 83.9479 36.48 84.1116 36.48H84.8075C84.9713 36.48 85.0531 36.3982 85.0531 36.2344V34.9245ZM85.79 36.2344C85.79 36.521 85.7245 36.7298 85.5935 36.8607C85.4652 36.989 85.2578 37.0531 84.9713 37.0531H83.9479C83.6613 37.0531 83.4526 36.989 83.3216 36.8607C83.1933 36.7298 83.1292 36.521 83.1292 36.2344V34.9245C83.1292 34.638 83.1933 34.4306 83.3216 34.3023C83.4526 34.1713 83.6613 34.1058 83.9479 34.1058H84.9713C85.2578 34.1058 85.4652 34.1713 85.5935 34.3023C85.7245 34.4306 85.79 34.638 85.79 34.9245V36.2344Z" fill="#434343"/>
<path d="M88.8211 35.4157L88.248 36.4391H87.6749L87.1018 35.4157V37.0122H86.365V34.1467H87.1427L87.9614 35.6613L88.7801 34.1467H89.5579V37.0122H88.8211V35.4157Z" fill="#434343"/>
<path d="M92.7115 37.0122H91.9747V35.252L90.9922 37.0122H90.2145V34.1467H90.9513V35.907L91.9337 34.1467H92.7115V37.0122Z" fill="#434343"/>
<path d="M95.0263 36.0707C94.6988 36.098 94.389 36.1116 94.097 36.1116C93.8078 36.1116 93.6003 36.0489 93.4748 35.9233C93.3493 35.7978 93.2865 35.6013 93.2865 35.3339V34.1467H94.0233V35.3339C94.0233 35.3966 94.0411 35.4471 94.0766 35.4853C94.1148 35.5208 94.1653 35.5385 94.228 35.5385C94.4518 35.5385 94.7179 35.5249 95.0263 35.4976V34.1467H95.7631V37.0122H95.0263V36.0707Z" fill="#434343"/>
<path d="M98.6903 37.0122H96.4184V34.1467H98.6903V34.7198H97.1552V35.2725H98.3628V35.8456H97.1552V36.4391H98.6903V37.0122Z" fill="#434343"/>
<path d="M101.391 36.9713C100.782 37.0258 100.278 37.0531 99.8764 37.0531C99.609 37.0531 99.4125 36.9904 99.287 36.8648C99.1614 36.7393 99.0987 36.5428 99.0987 36.2754V34.9654C99.0987 34.6789 99.1628 34.4715 99.2911 34.3432C99.4221 34.2122 99.6308 34.1467 99.9174 34.1467H101.391V34.7198H100.081C99.9174 34.7198 99.8355 34.8017 99.8355 34.9654V36.2754C99.8355 36.3381 99.8532 36.3886 99.8887 36.4268C99.9269 36.4623 99.9747 36.48 100.032 36.48C100.089 36.48 100.152 36.48 100.22 36.48C100.289 36.4773 100.359 36.4746 100.433 36.4719C100.507 36.4691 100.581 36.4664 100.654 36.4637C100.731 36.4609 100.827 36.4555 100.945 36.4473C101.065 36.4391 101.214 36.4296 101.391 36.4186V36.9713Z" fill="#434343"/>
<path d="M103.97 34.1058C104.039 34.1058 104.161 34.1195 104.339 34.1467V34.6994H104.175C104.134 34.6994 104.097 34.713 104.065 34.7403C104.032 34.7649 104.007 34.7922 103.991 34.8222L103.602 35.559L104.4 37.0122H103.622L102.988 35.8456H102.62V37.0122H101.883V34.1467H102.62V35.2725H102.988L103.397 34.4947C103.457 34.3801 103.531 34.2873 103.618 34.2163C103.708 34.1427 103.826 34.1058 103.97 34.1058Z" fill="#434343"/>
<path d="M107.306 37.0122H106.569V35.252L105.587 37.0122H104.809V34.1467H105.546V35.907L106.528 34.1467H107.306V37.0122Z" fill="#434343"/>
<path d="M109.723 37.0122V35.252L108.74 37.0122H107.963V34.1467H108.7V35.907L109.682 34.1467H110.46V37.0122H109.723ZM108.986 33.9421C108.631 33.9421 108.454 33.7647 108.454 33.4099V33.2871H108.986V33.3894C108.986 33.4304 109 33.4645 109.027 33.4918C109.054 33.5191 109.088 33.5327 109.129 33.5327H109.252C109.293 33.5327 109.327 33.5191 109.355 33.4918C109.382 33.4645 109.395 33.4304 109.395 33.3894V33.2871H109.928V33.4099C109.928 33.7647 109.75 33.9421 109.395 33.9421H108.986Z" fill="#434343"/>
<path d="M113.195 37.0531C113.059 37.0531 112.918 37.0395 112.774 37.0122V36.4596H113.142C113.221 36.4596 113.276 36.4282 113.306 36.3654C113.32 36.3381 113.326 36.3095 113.326 36.2795C113.326 36.2467 113.32 36.2181 113.306 36.1935L112.18 34.1467H112.999L113.736 35.5999L114.35 34.1467H115.168L114.125 36.3982C114.029 36.6138 113.914 36.7748 113.781 36.8812C113.633 36.9958 113.438 37.0531 113.195 37.0531Z" fill="#434343"/>
<path d="M117.995 37.0122H117.258V35.8456H116.234V37.0122H115.498V34.1467H116.234V35.2725H117.258V34.1467H117.995V37.0122Z" fill="#434343"/>
<path d="M121.149 37.0122H120.412V35.252L119.429 37.0122H118.652V34.1467H119.388V35.907L120.371 34.1467H121.149V37.0122Z" fill="#434343"/>
<path d="M121.805 34.1467H123.443C123.71 34.1467 123.907 34.2081 124.032 34.331C124.158 34.451 124.221 34.6352 124.221 34.8836C124.221 35.0473 124.185 35.181 124.114 35.2847C124.043 35.3857 123.956 35.4567 123.852 35.4976C124.073 35.5576 124.223 35.705 124.303 35.9397C124.33 36.0243 124.343 36.1225 124.343 36.2344C124.343 36.5019 124.281 36.6984 124.155 36.8239C124.03 36.9494 123.833 37.0122 123.566 37.0122H121.805V34.1467ZM123.607 36.1116C123.607 35.9479 123.525 35.866 123.361 35.866H122.542V36.4391H123.361C123.525 36.4391 123.607 36.3572 123.607 36.1935V36.1116ZM123.484 34.9654C123.484 34.8017 123.402 34.7198 123.238 34.7198H122.542V35.2929H123.238C123.402 35.2929 123.484 35.2111 123.484 35.0473V34.9654Z" fill="#434343"/>
<path d="M127.147 37.0122H124.875V34.1467H127.147V34.7198H125.612V35.2725H126.82V35.8456H125.612V36.4391H127.147V37.0122Z" fill="#434343"/>
<path d="M127.638 34.1467H129.357C129.643 34.1467 129.851 34.2122 129.979 34.3432C130.11 34.4715 130.176 34.6789 130.176 34.9654V35.3748C130.176 35.6613 130.11 35.8701 129.979 36.0011C129.851 36.1294 129.643 36.1935 129.357 36.1935H128.374V37.0122H127.638V34.1467ZM129.439 34.9654C129.439 34.8017 129.357 34.7198 129.193 34.7198H128.374V35.6204H129.193C129.357 35.6204 129.439 35.5385 129.439 35.3748V34.9654Z" fill="#434343"/>
<path d="M132.918 36.9713C132.31 37.0258 131.805 37.0531 131.403 37.0531C131.136 37.0531 130.94 36.9904 130.814 36.8648C130.688 36.7393 130.626 36.5428 130.626 36.2754V34.9654C130.626 34.6789 130.69 34.4715 130.818 34.3432C130.949 34.2122 131.158 34.1467 131.444 34.1467H132.918V34.7198H131.608C131.444 34.7198 131.363 34.8017 131.363 34.9654V36.2754C131.363 36.3381 131.38 36.3886 131.416 36.4268C131.454 36.4623 131.502 36.48 131.559 36.48C131.616 36.48 131.679 36.48 131.747 36.48C131.816 36.4773 131.887 36.4746 131.96 36.4719C132.034 36.4691 132.108 36.4664 132.181 36.4637C132.258 36.4609 132.355 36.4555 132.472 36.4473C132.592 36.4391 132.741 36.4296 132.918 36.4186V36.9713Z" fill="#434343"/>
<path d="M135.907 37.0122H135.17V35.252L134.188 37.0122H133.41V34.1467H134.147V35.907L135.129 34.1467H135.907V37.0122Z" fill="#434343"/>
<path d="M137.956 37.0122H137.219V34.7198H136.359V34.1467H138.815V34.7198H137.956V37.0122Z" fill="#434343"/>
<path d="M141.538 37.0122H139.266V34.1467H141.538V34.7198H140.003V35.2725H141.21V35.8456H140.003V36.4391H141.538V37.0122Z" fill="#434343"/>
<path d="M143.42 37.0122H142.683V34.7198H141.823V34.1467H144.28V34.7198H143.42V37.0122Z" fill="#434343"/>
<path d="M148.618 37.0122H147.881V35.252L146.899 37.0122H146.121V34.1467H146.858V35.907L147.841 34.1467H148.618V37.0122Z" fill="#434343"/>
<path d="M151.731 35.4157L151.158 36.4391H150.585L150.012 35.4157V37.0122H149.275V34.1467H150.053L150.872 35.6613L151.69 34.1467H152.468V37.0122H151.731V35.4157Z" fill="#434343"/>
<path d="M153.002 36.3982H153.739V37.0122H153.002V36.3982Z" fill="#434343"/>
<path d="M156.4 37.0122H155.663V34.1467H157.894V34.7198H156.4V37.0122Z" fill="#434343"/>
<path d="M157.814 36.3982H158.551V37.0122H157.814V36.3982Z" fill="#434343"/>
<path d="M159.084 34.1467H160.722C160.989 34.1467 161.186 34.2081 161.311 34.331C161.437 34.451 161.5 34.6352 161.5 34.8836C161.5 35.0473 161.464 35.181 161.393 35.2847C161.322 35.3857 161.235 35.4567 161.131 35.4976C161.352 35.5576 161.502 35.705 161.581 35.9397C161.609 36.0243 161.622 36.1225 161.622 36.2344C161.622 36.5019 161.56 36.6984 161.434 36.8239C161.309 36.9494 161.112 37.0122 160.845 37.0122H159.084V34.1467ZM160.886 36.1116C160.886 35.9479 160.804 35.866 160.64 35.866H159.821V36.4391H160.64C160.804 36.4391 160.886 36.3572 160.886 36.1935V36.1116ZM160.763 34.9654C160.763 34.8017 160.681 34.7198 160.517 34.7198H159.821V35.2929H160.517C160.681 35.2929 160.763 35.2111 160.763 35.0473V34.9654Z" fill="#434343"/>
<path d="M162.032 36.3982H162.768V37.0122H162.032V36.3982Z" fill="#434343"/>
<path d="M167.19 37.0122H166.453V34.7198H165.429V37.0122H164.693V34.1467H167.19V37.0122Z" fill="#434343"/>
<path d="M168.706 36.4186C168.692 36.6151 168.63 36.7707 168.518 36.8853C168.406 36.9972 168.268 37.0531 168.104 37.0531C167.941 37.0531 167.786 37.0395 167.642 37.0122V36.4596H167.826C167.878 36.4596 167.92 36.4418 167.953 36.4064C167.988 36.3709 168.007 36.3272 168.01 36.2754L168.133 34.1467H170.405V37.0122H169.668V34.7198H168.808L168.706 36.4186Z" fill="#434343"/>
<path d="M173.332 37.0122H171.06V34.1467H173.332V34.7198H171.797V35.2725H173.005V35.8456H171.797V36.4391H173.332V37.0122Z" fill="#434343"/>
<path d="M175.48 34.1467H176.299L175.378 35.5795L176.32 37.0122H175.501L174.928 36.1116L174.355 37.0122H173.536L174.477 35.5795L173.556 34.1467H174.371L174.928 35.0473L175.48 34.1467Z" fill="#434343"/>
<path d="M177.2 37.0122H176.402L177.487 34.1467H178.306L179.39 37.0122H178.592L178.408 36.5005H177.384L177.2 37.0122ZM177.569 35.9684H178.224L177.896 35.0064L177.569 35.9684Z" fill="#434343"/>
<path d="M182.256 37.0122H181.519V35.8456H180.495V37.0122H179.759V34.1467H180.495V35.2725H181.519V34.1467H182.256V37.0122Z" fill="#434343"/>
<path d="M184.755 34.9245C184.755 34.7608 184.673 34.6789 184.509 34.6789H183.813C183.649 34.6789 183.567 34.7608 183.567 34.9245V36.2344C183.567 36.3982 183.649 36.48 183.813 36.48H184.509C184.673 36.48 184.755 36.3982 184.755 36.2344V34.9245ZM185.491 36.2344C185.491 36.521 185.426 36.7298 185.295 36.8607C185.167 36.989 184.959 37.0531 184.673 37.0531H183.649C183.363 37.0531 183.154 36.989 183.023 36.8607C182.895 36.7298 182.831 36.521 182.831 36.2344V34.9245C182.831 34.638 182.895 34.4306 183.023 34.3023C183.154 34.1713 183.363 34.1058 183.649 34.1058H184.673C184.959 34.1058 185.167 34.1713 185.295 34.3023C185.426 34.4306 185.491 34.638 185.491 34.9245V36.2344Z" fill="#434343"/>
<path d="M186.066 34.1467H187.704C187.971 34.1467 188.168 34.2081 188.293 34.331C188.419 34.451 188.482 34.6352 188.482 34.8836C188.482 35.0473 188.446 35.181 188.375 35.2847C188.304 35.3857 188.217 35.4567 188.113 35.4976C188.334 35.5576 188.484 35.705 188.563 35.9397C188.591 36.0243 188.604 36.1225 188.604 36.2344C188.604 36.5019 188.542 36.6984 188.416 36.8239C188.291 36.9494 188.094 37.0122 187.827 37.0122H186.066V34.1467ZM187.868 36.1116C187.868 35.9479 187.786 35.866 187.622 35.866H186.803V36.4391H187.622C187.786 36.4391 187.868 36.3572 187.868 36.1935V36.1116ZM187.745 34.9654C187.745 34.8017 187.663 34.7198 187.499 34.7198H186.803V35.2929H187.499C187.663 35.2929 187.745 35.2111 187.745 35.0473V34.9654Z" fill="#434343"/>
<path d="M189.648 37.0122H188.85L189.935 34.1467H190.753L191.838 37.0122H191.04L190.856 36.5005H189.832L189.648 37.0122ZM190.016 35.9684H190.671L190.344 35.0064L190.016 35.9684Z" fill="#434343"/>
<path d="M40.0887 10.5323H41.1082L43.6283 14.3028L46.1388 10.5323H47.1584V17.2654H46.0138V12.6196L44.0612 15.5436H43.1859L41.2333 12.6099V17.2654H40.0887V10.5323Z" fill="#2D2D2D"/>
<path d="M50.9279 17.3904C50.5432 17.3904 50.1873 17.3263 49.8603 17.198C49.5396 17.0698 49.2639 16.8902 49.0331 16.6594C48.8022 16.4286 48.6227 16.1528 48.4944 15.8322C48.3662 15.5052 48.302 15.1461 48.302 14.7549C48.302 14.3702 48.3662 14.0175 48.4944 13.6968C48.6227 13.3698 48.8022 13.0909 49.0331 12.86C49.2703 12.6228 49.5493 12.44 49.8699 12.3118C50.1969 12.1835 50.556 12.1194 50.9472 12.1194C51.3576 12.1194 51.7295 12.1931 52.0629 12.3406C52.3964 12.4881 52.6785 12.6933 52.9094 12.9562C53.1402 13.2191 53.3134 13.5365 53.4288 13.9085C53.5442 14.2804 53.5923 14.6876 53.5731 15.13H49.4082C49.4787 15.534 49.6487 15.8546 49.918 16.0919C50.1937 16.3227 50.5368 16.4382 50.9472 16.4382C51.2293 16.4382 51.4858 16.3805 51.7167 16.265C51.9475 16.1496 52.1367 15.9829 52.2842 15.7649H53.4673C53.2557 16.2714 52.9254 16.669 52.4766 16.9576C52.0341 17.2461 51.5179 17.3904 50.9279 17.3904ZM52.4958 14.3028C52.406 13.9181 52.2233 13.6167 51.9475 13.3987C51.6782 13.1806 51.3448 13.0716 50.9472 13.0716C50.5496 13.0716 50.213 13.1838 49.9372 13.4083C49.6679 13.6263 49.4948 13.9245 49.4178 14.3028H52.4958Z" fill="#2D2D2D"/>
<path d="M56.9309 15.2262C56.854 15.2262 56.777 15.2262 56.7001 15.2262C56.6295 15.2198 56.559 15.2134 56.4884 15.207L55.2284 17.2654H53.9395L55.44 14.8415C55.1194 14.6042 54.8693 14.2291 54.6897 13.7161L54.1607 12.2444H55.3342L55.6901 13.3217C55.8119 13.6744 55.969 13.9117 56.1614 14.0335C56.3602 14.1553 56.6359 14.2163 56.9886 14.2163H57.4118V12.2444H58.5084V14.2163H58.9316C59.1111 14.2163 59.2682 14.2034 59.4029 14.1778C59.5376 14.1521 59.653 14.1072 59.7492 14.0431C59.8518 13.9726 59.9415 13.8796 60.0185 13.7642C60.0954 13.6488 60.166 13.5013 60.2301 13.3217L60.586 12.2444H61.7595L61.2305 13.7161C61.0509 14.2291 60.8008 14.6042 60.4802 14.8415L61.9807 17.2654H60.6918L59.4318 15.207C59.3612 15.2134 59.2875 15.2198 59.2105 15.2262C59.14 15.2262 59.0662 15.2262 58.9893 15.2262H58.5084V17.2654H57.4118V15.2262H56.9309Z" fill="#2D2D2D"/>
<path d="M62.1699 16.2362H62.8144C62.9234 16.1656 63.0068 16.0662 63.0645 15.938C63.1222 15.8033 63.1639 15.6142 63.1895 15.3705L63.4396 12.2444H67.3833V16.2362H68.2297V18.5639H67.162V17.2654H63.2376V18.5639H62.1699V16.2362ZM66.2963 16.2747V13.2544H64.4303L64.2476 15.5052C64.2347 15.6719 64.2091 15.8162 64.1706 15.938C64.1385 16.0598 64.0937 16.1721 64.036 16.2747H66.2963Z" fill="#2D2D2D"/>
<path d="M68.7916 18.1984H69.3302C69.4841 18.1984 69.6156 18.1888 69.7246 18.1695C69.8336 18.1503 69.9266 18.115 70.0035 18.0637C70.0805 18.0188 70.1446 17.9515 70.1959 17.8617C70.2536 17.7784 70.3049 17.6726 70.3498 17.5443L70.5037 17.1211L68.1663 12.2444H69.3879L71.0327 15.8033L71.5617 14.4086L72.3793 12.2444H73.5528L71.302 17.9675C71.2059 18.2112 71.1033 18.41 70.9942 18.5639C70.8852 18.7242 70.757 18.8493 70.6095 18.939C70.462 19.0288 70.2921 19.0929 70.0997 19.1314C69.9073 19.1699 69.6829 19.1891 69.4264 19.1891H68.7916V18.1984Z" fill="#2D2D2D"/>
<path d="M77.9099 15.2358H75.3898V17.2654H74.2933V12.2444H75.3898V14.2163H77.9099V12.2444H79.0065V17.2654H77.9099V15.2358Z" fill="#2D2D2D"/>
<path d="M82.1054 17.3519C81.5026 17.3519 81.0281 17.2141 80.6818 16.9383C80.3356 16.6626 80.1624 16.2843 80.1624 15.8033C80.1624 15.3416 80.3195 14.9729 80.6337 14.6972C80.9479 14.4215 81.368 14.2836 81.8938 14.2836H83.8271V14.1297C83.8271 13.7962 83.7213 13.5333 83.5097 13.341C83.2981 13.1486 83.0063 13.0524 82.6344 13.0524C82.3523 13.0524 82.1086 13.1165 81.9034 13.2448C81.7046 13.3666 81.5732 13.5301 81.509 13.7353H80.4221C80.5311 13.2287 80.778 12.8344 81.1628 12.5522C81.5539 12.2637 82.0413 12.1194 82.6248 12.1194C82.9711 12.1194 83.2853 12.1675 83.5674 12.2637C83.8496 12.3598 84.09 12.4977 84.2888 12.6773C84.4876 12.8504 84.6415 13.0652 84.7505 13.3217C84.8595 13.5718 84.914 13.8507 84.914 14.1585V17.2654H84.0484L83.9329 16.6498C83.4777 17.1179 82.8685 17.3519 82.1054 17.3519ZM81.2589 15.7745C81.2589 15.9797 81.3455 16.1464 81.5187 16.2747C81.6982 16.3965 81.9419 16.4574 82.2497 16.4574C82.4741 16.4574 82.6793 16.4253 82.8653 16.3612C83.0512 16.2971 83.2147 16.2073 83.3558 16.0919C83.4969 15.9701 83.6091 15.829 83.6925 15.6687C83.7758 15.502 83.8239 15.3192 83.8368 15.1204H82.0765C81.8329 15.1204 81.6341 15.1813 81.4802 15.3032C81.3327 15.4186 81.2589 15.5757 81.2589 15.7745Z" fill="#2D2D2D"/>
<path d="M89.0984 17.3904C88.7521 17.3904 88.4283 17.3327 88.1269 17.2173C87.8319 17.1019 87.5722 16.9383 87.3478 16.7267V19.1891H86.2513V12.2444H87.1073L87.242 12.8889C87.4728 12.6452 87.7454 12.456 88.0596 12.3214C88.3738 12.1867 88.7201 12.1194 89.0984 12.1194C89.4703 12.1194 89.8102 12.1867 90.118 12.3214C90.4322 12.4496 90.7015 12.6324 90.9259 12.8696C91.1568 13.1005 91.3331 13.3762 91.455 13.6968C91.5832 14.0175 91.6474 14.3702 91.6474 14.7549C91.6474 15.1396 91.5832 15.4955 91.455 15.8226C91.3331 16.1432 91.1568 16.4189 90.9259 16.6498C90.7015 16.8806 90.4322 17.0634 90.118 17.198C89.8102 17.3263 89.4703 17.3904 89.0984 17.3904ZM87.3093 14.7549C87.3093 14.9922 87.3478 15.2134 87.4247 15.4186C87.5081 15.6174 87.6203 15.7905 87.7614 15.938C87.9025 16.0791 88.0724 16.1913 88.2712 16.2747C88.4764 16.3516 88.6976 16.3901 88.9349 16.3901C89.1721 16.3901 89.3902 16.3516 89.589 16.2747C89.7877 16.1913 89.9577 16.0791 90.0987 15.938C90.2462 15.7905 90.3584 15.6174 90.4354 15.4186C90.5188 15.2134 90.5604 14.9922 90.5604 14.7549C90.5604 14.5112 90.5188 14.29 90.4354 14.0912C90.3584 13.8924 90.2462 13.7225 90.0987 13.5814C89.9577 13.4339 89.7877 13.3217 89.589 13.2448C89.3902 13.1614 89.1721 13.1197 88.9349 13.1197C88.6976 13.1197 88.4764 13.1614 88.2712 13.2448C88.0724 13.3217 87.9025 13.4339 87.7614 13.5814C87.6203 13.7225 87.5081 13.8924 87.4247 14.0912C87.3478 14.29 87.3093 14.5112 87.3093 14.7549Z" fill="#2D2D2D"/>
<path d="M95.0657 17.3904C94.6681 17.3904 94.3026 17.3263 93.9691 17.198C93.6357 17.0698 93.3471 16.8902 93.1035 16.6594C92.8662 16.4221 92.6802 16.1432 92.5456 15.8226C92.4109 15.4955 92.3436 15.1396 92.3436 14.7549C92.3436 14.3702 92.4109 14.0175 92.5456 13.6968C92.6802 13.3698 92.8662 13.0909 93.1035 12.86C93.3471 12.6292 93.6357 12.4496 93.9691 12.3214C94.3026 12.1867 94.6681 12.1194 95.0657 12.1194C95.4632 12.1194 95.8255 12.1867 96.1526 12.3214C96.486 12.4496 96.7714 12.6292 97.0086 12.86C97.2523 13.0909 97.4415 13.3698 97.5761 13.6968C97.7108 14.0175 97.7781 14.3702 97.7781 14.7549C97.7781 15.1396 97.7108 15.4955 97.5761 15.8226C97.4415 16.1432 97.2523 16.4221 97.0086 16.6594C96.7714 16.8902 96.486 17.0698 96.1526 17.198C95.8255 17.3263 95.4632 17.3904 95.0657 17.3904ZM93.4305 14.7549C93.4305 14.9922 93.469 15.2134 93.5459 15.4186C93.6293 15.6174 93.7415 15.7905 93.8826 15.938C94.0301 16.0791 94.2032 16.1913 94.402 16.2747C94.6072 16.3516 94.8284 16.3901 95.0657 16.3901C95.3029 16.3901 95.521 16.3516 95.7197 16.2747C95.9185 16.1913 96.0885 16.0791 96.2295 15.938C96.377 15.7905 96.4892 15.6174 96.5662 15.4186C96.6495 15.2134 96.6912 14.9922 96.6912 14.7549C96.6912 14.5112 96.6495 14.29 96.5662 14.0912C96.4892 13.8924 96.377 13.7225 96.2295 13.5814C96.0885 13.4339 95.9185 13.3217 95.7197 13.2448C95.521 13.1614 95.3029 13.1197 95.0657 13.1197C94.8284 13.1197 94.6072 13.1614 94.402 13.2448C94.2032 13.3217 94.0301 13.4339 93.8826 13.5814C93.7415 13.7225 93.6293 13.8924 93.5459 14.0912C93.469 14.29 93.4305 14.5112 93.4305 14.7549Z" fill="#2D2D2D"/>
<path d="M98.0251 16.2362H98.6695C98.7785 16.1656 98.8619 16.0662 98.9196 15.938C98.9773 15.8033 99.019 15.6142 99.0446 15.3705L99.2947 12.2444H103.238V16.2362H104.085V18.5639H103.017V17.2654H99.0927V18.5639H98.0251V16.2362ZM102.151 16.2747V13.2544H100.285L100.103 15.5052C100.09 15.6719 100.064 15.8162 100.026 15.938C99.9937 16.0598 99.9488 16.1721 99.8911 16.2747H102.151Z" fill="#2D2D2D"/>
<path d="M108.556 15.2358H106.036V17.2654H104.94V12.2444H106.036V14.2163H108.556V12.2444H109.653V17.2654H108.556V15.2358Z" fill="#2D2D2D"/>
<path d="M111.088 12.2444H112.184V13.7353H113.444C113.746 13.7353 114.015 13.777 114.252 13.8604C114.496 13.9437 114.701 14.0624 114.868 14.2163C115.041 14.3637 115.172 14.5465 115.262 14.7645C115.358 14.9825 115.407 15.2262 115.407 15.4955C115.407 16.0406 115.23 16.4734 114.878 16.7941C114.525 17.1083 114.047 17.2654 113.444 17.2654H111.088V12.2444ZM113.367 16.3035C113.669 16.3035 113.9 16.233 114.06 16.0919C114.227 15.9508 114.31 15.752 114.31 15.4955C114.31 15.239 114.227 15.0435 114.06 14.9088C113.9 14.7677 113.669 14.6972 113.367 14.6972H112.175V16.3035H113.367ZM116.522 12.2444H117.619V17.2654H116.522V12.2444Z" fill="#2D2D2D"/>
<path d="M119.049 12.2444H120.136V15.611L122.858 12.2444H123.868V17.2654H122.771V13.9085L120.049 17.2654H119.049V12.2444ZM120.011 9.99365H120.819V10.1956C120.819 10.4008 120.873 10.5579 120.982 10.667C121.097 10.776 121.255 10.8305 121.453 10.8305C121.659 10.8305 121.816 10.776 121.925 10.667C122.04 10.5579 122.098 10.4008 122.098 10.1956V9.99365H122.906V10.2534C122.906 10.6573 122.774 10.978 122.511 11.2152C122.249 11.4461 121.896 11.5615 121.453 11.5615C121.011 11.5615 120.658 11.4461 120.395 11.2152C120.139 10.978 120.011 10.6573 120.011 10.2534V9.99365Z" fill="#2D2D2D"/>
<path d="M127.409 12.2444H128.381L130.285 14.8799L132.19 12.2444H133.161V17.2654H132.074V14.0431L130.631 16.063H129.939L128.496 14.0431V17.2654H127.409V12.2444Z" fill="#2D2D2D"/>
<path d="M136.947 17.3904C136.549 17.3904 136.184 17.3263 135.85 17.198C135.517 17.0698 135.228 16.8902 134.985 16.6594C134.747 16.4221 134.561 16.1432 134.427 15.8226C134.292 15.4955 134.225 15.1396 134.225 14.7549C134.225 14.3702 134.292 14.0175 134.427 13.6968C134.561 13.3698 134.747 13.0909 134.985 12.86C135.228 12.6292 135.517 12.4496 135.85 12.3214C136.184 12.1867 136.549 12.1194 136.947 12.1194C137.344 12.1194 137.707 12.1867 138.034 12.3214C138.367 12.4496 138.652 12.6292 138.89 12.86C139.133 13.0909 139.323 13.3698 139.457 13.6968C139.592 14.0175 139.659 14.3702 139.659 14.7549C139.659 15.1396 139.592 15.4955 139.457 15.8226C139.323 16.1432 139.133 16.4221 138.89 16.6594C138.652 16.8902 138.367 17.0698 138.034 17.198C137.707 17.3263 137.344 17.3904 136.947 17.3904ZM135.312 14.7549C135.312 14.9922 135.35 15.2134 135.427 15.4186C135.51 15.6174 135.623 15.7905 135.764 15.938C135.911 16.0791 136.084 16.1913 136.283 16.2747C136.488 16.3516 136.709 16.3901 136.947 16.3901C137.184 16.3901 137.402 16.3516 137.601 16.2747C137.8 16.1913 137.97 16.0791 138.111 15.938C138.258 15.7905 138.37 15.6174 138.447 15.4186C138.531 15.2134 138.572 14.9922 138.572 14.7549C138.572 14.5112 138.531 14.29 138.447 14.0912C138.37 13.8924 138.258 13.7225 138.111 13.5814C137.97 13.4339 137.8 13.3217 137.601 13.2448C137.402 13.1614 137.184 13.1197 136.947 13.1197C136.709 13.1197 136.488 13.1614 136.283 13.2448C136.084 13.3217 135.911 13.4339 135.764 13.5814C135.623 13.7225 135.51 13.8924 135.427 14.0912C135.35 14.29 135.312 14.5112 135.312 14.7549Z" fill="#2D2D2D"/>
<path d="M139.924 16.265H140.213C140.425 16.265 140.582 16.2137 140.684 16.1111C140.793 16.0085 140.857 15.8418 140.877 15.611L141.156 12.2444H145.157V17.2654H144.061V13.264H142.156L141.954 15.7552C141.909 16.2554 141.755 16.6337 141.492 16.8902C141.236 17.1403 140.854 17.2654 140.348 17.2654H139.924V16.265Z" fill="#2D2D2D"/>
<path d="M148.942 17.3904C148.545 17.3904 148.179 17.3263 147.846 17.198C147.512 17.0698 147.224 16.8902 146.98 16.6594C146.743 16.4221 146.557 16.1432 146.422 15.8226C146.288 15.4955 146.22 15.1396 146.22 14.7549C146.22 14.3702 146.288 14.0175 146.422 13.6968C146.557 13.3698 146.743 13.0909 146.98 12.86C147.224 12.6292 147.512 12.4496 147.846 12.3214C148.179 12.1867 148.545 12.1194 148.942 12.1194C149.34 12.1194 149.702 12.1867 150.029 12.3214C150.363 12.4496 150.648 12.6292 150.885 12.86C151.129 13.0909 151.318 13.3698 151.453 13.6968C151.587 14.0175 151.655 14.3702 151.655 14.7549C151.655 15.1396 151.587 15.4955 151.453 15.8226C151.318 16.1432 151.129 16.4221 150.885 16.6594C150.648 16.8902 150.363 17.0698 150.029 17.198C149.702 17.3263 149.34 17.3904 148.942 17.3904ZM147.307 14.7549C147.307 14.9922 147.346 15.2134 147.423 15.4186C147.506 15.6174 147.618 15.7905 147.759 15.938C147.907 16.0791 148.08 16.1913 148.279 16.2747C148.484 16.3516 148.705 16.3901 148.942 16.3901C149.18 16.3901 149.398 16.3516 149.596 16.2747C149.795 16.1913 149.965 16.0791 150.106 15.938C150.254 15.7905 150.366 15.6174 150.443 15.4186C150.526 15.2134 150.568 14.9922 150.568 14.7549C150.568 14.5112 150.526 14.29 150.443 14.0912C150.366 13.8924 150.254 13.7225 150.106 13.5814C149.965 13.4339 149.795 13.3217 149.596 13.2448C149.398 13.1614 149.18 13.1197 148.942 13.1197C148.705 13.1197 148.484 13.1614 148.279 13.2448C148.08 13.3217 147.907 13.4339 147.759 13.5814C147.618 13.7225 147.506 13.8924 147.423 14.0912C147.346 14.29 147.307 14.5112 147.307 14.7549Z" fill="#2D2D2D"/>
<path d="M151.902 16.2362H152.546C152.655 16.1656 152.739 16.0662 152.796 15.938C152.854 15.8033 152.896 15.6142 152.921 15.3705L153.171 12.2444H157.115V16.2362H157.961V18.5639H156.894V17.2654H152.969V18.5639H151.902V16.2362ZM156.028 16.2747V13.2544H154.162L153.979 15.5052C153.967 15.6719 153.941 15.8162 153.902 15.938C153.87 16.0598 153.825 16.1721 153.768 16.2747H156.028Z" fill="#2D2D2D"/>
<path d="M160.973 17.3904C160.588 17.3904 160.233 17.3263 159.905 17.198C159.585 17.0698 159.309 16.8902 159.078 16.6594C158.847 16.4286 158.668 16.1528 158.54 15.8322C158.411 15.5052 158.347 15.1461 158.347 14.7549C158.347 14.3702 158.411 14.0175 158.54 13.6968C158.668 13.3698 158.847 13.0909 159.078 12.86C159.316 12.6228 159.594 12.44 159.915 12.3118C160.242 12.1835 160.601 12.1194 160.992 12.1194C161.403 12.1194 161.775 12.1931 162.108 12.3406C162.442 12.4881 162.724 12.6933 162.955 12.9562C163.185 13.2191 163.359 13.5365 163.474 13.9085C163.589 14.2804 163.638 14.6876 163.618 15.13H159.453C159.524 15.534 159.694 15.8546 159.963 16.0919C160.239 16.3227 160.582 16.4382 160.992 16.4382C161.275 16.4382 161.531 16.3805 161.762 16.265C161.993 16.1496 162.182 15.9829 162.329 15.7649H163.512C163.301 16.2714 162.971 16.669 162.522 16.9576C162.079 17.2461 161.563 17.3904 160.973 17.3904ZM162.541 14.3028C162.451 13.9181 162.268 13.6167 161.993 13.3987C161.723 13.1806 161.39 13.0716 160.992 13.0716C160.595 13.0716 160.258 13.1838 159.982 13.4083C159.713 13.6263 159.54 13.9245 159.463 14.3028H162.541Z" fill="#2D2D2D"/>
<path d="M166.976 15.2262C166.899 15.2262 166.822 15.2262 166.745 15.2262C166.675 15.2198 166.604 15.2134 166.534 15.207L165.274 17.2654H163.985L165.485 14.8415C165.165 14.6042 164.915 14.2291 164.735 13.7161L164.206 12.2444H165.379L165.735 13.3217C165.857 13.6744 166.014 13.9117 166.207 14.0335C166.405 14.1553 166.681 14.2163 167.034 14.2163H167.457V12.2444H168.554V14.2163H168.977C169.156 14.2163 169.313 14.2034 169.448 14.1778C169.583 14.1521 169.698 14.1072 169.794 14.0431C169.897 13.9726 169.987 13.8796 170.064 13.7642C170.141 13.6488 170.211 13.5013 170.275 13.3217L170.631 12.2444H171.805L171.276 13.7161C171.096 14.2291 170.846 14.6042 170.525 14.8415L172.026 17.2654H170.737L169.477 15.207C169.406 15.2134 169.333 15.2198 169.256 15.2262C169.185 15.2262 169.111 15.2262 169.035 15.2262H168.554V17.2654H167.457V15.2262H166.976Z" fill="#2D2D2D"/>
<path d="M176.57 15.2358H174.05V17.2654H172.954V12.2444H174.05V14.2163H176.57V12.2444H177.667V17.2654H176.57V15.2358Z" fill="#2D2D2D"/>
<path d="M179.102 12.2444H180.198V13.7353H181.458C181.76 13.7353 182.029 13.777 182.266 13.8604C182.51 13.9437 182.715 14.0624 182.882 14.2163C183.055 14.3637 183.186 14.5465 183.276 14.7645C183.372 14.9825 183.42 15.2262 183.42 15.4955C183.42 16.0406 183.244 16.4734 182.891 16.7941C182.539 17.1083 182.061 17.2654 181.458 17.2654H179.102V12.2444ZM181.381 16.3035C181.683 16.3035 181.913 16.233 182.074 16.0919C182.24 15.9508 182.324 15.752 182.324 15.4955C182.324 15.239 182.24 15.0435 182.074 14.9088C181.913 14.7677 181.683 14.6972 181.381 14.6972H180.189V16.3035H181.381ZM184.536 12.2444H185.633V17.2654H184.536V12.2444Z" fill="#2D2D2D"/>
<path d="M187.063 12.2444H188.149V15.611L190.872 12.2444H191.882V17.2654H190.785V13.9085L188.063 17.2654H187.063V12.2444ZM188.024 9.99365H188.832V10.1956C188.832 10.4008 188.887 10.5579 188.996 10.667C189.111 10.776 189.268 10.8305 189.467 10.8305C189.672 10.8305 189.83 10.776 189.939 10.667C190.054 10.5579 190.112 10.4008 190.112 10.1956V9.99365H190.92V10.2534C190.92 10.6573 190.788 10.978 190.525 11.2152C190.262 11.4461 189.91 11.5615 189.467 11.5615C189.025 11.5615 188.672 11.4461 188.409 11.2152C188.153 10.978 188.024 10.6573 188.024 10.2534V9.99365Z" fill="#2D2D2D"/>
<path d="M40.0117 23.705H41.1082V25.6768H41.618C41.7976 25.6768 41.9547 25.664 42.0894 25.6383C42.224 25.6127 42.3394 25.5678 42.4356 25.5037C42.5382 25.4331 42.628 25.3402 42.7049 25.2247C42.7819 25.1093 42.8492 24.9618 42.9069 24.7823L43.2628 23.705H44.4459L43.9169 25.1766C43.7309 25.6832 43.4776 26.0584 43.157 26.302L44.6768 28.7259H43.3686L42.1182 26.6675C42.0477 26.6739 41.9739 26.6804 41.897 26.6868C41.8264 26.6868 41.7495 26.6868 41.6661 26.6868H41.1082V28.7259H40.0117V23.705Z" fill="#2D2D2D"/>
<path d="M44.848 27.7256H45.1365C45.3481 27.7256 45.5052 27.6743 45.6078 27.5717C45.7168 27.4691 45.781 27.3024 45.8002 27.0715L46.0792 23.705H50.0805V28.7259H48.984V24.7246H47.0795L46.8775 27.2158C46.8326 27.716 46.6787 28.0943 46.4158 28.3508C46.1593 28.6009 45.7778 28.7259 45.2712 28.7259H44.848V27.7256Z" fill="#2D2D2D"/>
<path d="M51.5188 23.705H52.6057V27.0715L55.3278 23.705H56.3378V28.7259H55.2412V25.369L52.5192 28.7259H51.5188V23.705Z" fill="#2D2D2D"/>
<path d="M57.7796 23.705H58.7511L60.6556 26.3405L62.5601 23.705H63.5316V28.7259H62.4447V25.5037L61.0019 27.5236H60.3093L58.8665 25.5037V28.7259H57.7796V23.705Z" fill="#2D2D2D"/>
<path d="M66.6343 28.8125C66.0316 28.8125 65.5571 28.6746 65.2108 28.3989C64.8645 28.1232 64.6914 27.7448 64.6914 27.2639C64.6914 26.8022 64.8485 26.4335 65.1627 26.1577C65.4769 25.882 65.8969 25.7441 66.4227 25.7441H68.3561V25.5902C68.3561 25.2568 68.2503 24.9939 68.0387 24.8015C67.8271 24.6091 67.5353 24.5129 67.1634 24.5129C66.8812 24.5129 66.6376 24.5771 66.4324 24.7053C66.2336 24.8272 66.1021 24.9907 66.038 25.1959H64.9511C65.0601 24.6893 65.307 24.2949 65.6917 24.0128C66.0829 23.7242 66.5702 23.5799 67.1538 23.5799C67.5 23.5799 67.8142 23.628 68.0964 23.7242C68.3785 23.8204 68.619 23.9583 68.8178 24.1378C69.0166 24.311 69.1705 24.5258 69.2795 24.7823C69.3885 25.0324 69.443 25.3113 69.443 25.6191V28.7259H68.5773L68.4619 28.1103C68.0066 28.5784 67.3974 28.8125 66.6343 28.8125ZM65.7879 27.235C65.7879 27.4402 65.8745 27.607 66.0476 27.7352C66.2272 27.857 66.4708 27.918 66.7786 27.918C67.0031 27.918 67.2083 27.8859 67.3942 27.8218C67.5802 27.7577 67.7437 27.6679 67.8848 27.5525C68.0259 27.4306 68.1381 27.2895 68.2214 27.1292C68.3048 26.9625 68.3529 26.7798 68.3657 26.581H66.6055C66.3618 26.581 66.163 26.6419 66.0091 26.7637C65.8616 26.8791 65.7879 27.0362 65.7879 27.235Z" fill="#2D2D2D"/>
<path d="M71.7775 24.7246H69.9692V23.705H74.6823V24.7246H72.874V28.7259H71.7775V24.7246Z" fill="#2D2D2D"/>
<path d="M75.5851 23.705H76.672V27.0715L79.3941 23.705H80.404V28.7259H79.3075V25.369L76.5854 28.7259H75.5851V23.705Z" fill="#2D2D2D"/>
<path d="M83.7696 27.2927C83.0706 27.2927 82.532 27.1068 82.1536 26.7349C81.7817 26.3629 81.5958 25.8275 81.5958 25.1285V23.705H82.6923V25.0131C82.6923 25.4684 82.7853 25.7922 82.9712 25.9846C83.1636 26.177 83.4938 26.2732 83.9619 26.2732H84.9911V23.705H86.0781V28.7259H84.9815V27.2927H83.7696Z" fill="#2D2D2D"/>
<path d="M89.775 28.851C89.3903 28.851 89.0344 28.7868 88.7073 28.6586C88.3867 28.5304 88.111 28.3508 87.8801 28.12C87.6493 27.8891 87.4697 27.6134 87.3415 27.2927C87.2132 26.9657 87.1491 26.6066 87.1491 26.2155C87.1491 25.8307 87.2132 25.478 87.3415 25.1574C87.4697 24.8304 87.6493 24.5514 87.8801 24.3206C88.1174 24.0833 88.3963 23.9006 88.717 23.7723C89.044 23.6441 89.4031 23.5799 89.7943 23.5799C90.2046 23.5799 90.5766 23.6537 90.91 23.8012C91.2435 23.9487 91.5256 24.1539 91.7565 24.4168C91.9873 24.6797 92.1604 24.9971 92.2759 25.369C92.3913 25.7409 92.4394 26.1481 92.4201 26.5906H88.2553C88.3258 26.9946 88.4957 27.3152 88.7651 27.5525C89.0408 27.7833 89.3839 27.8987 89.7943 27.8987C90.0764 27.8987 90.3329 27.841 90.5637 27.7256C90.7946 27.6102 90.9838 27.4434 91.1312 27.2254H92.3143C92.1027 27.732 91.7725 28.1296 91.3236 28.4181C90.8812 28.7067 90.365 28.851 89.775 28.851ZM91.3429 25.7634C91.2531 25.3786 91.0703 25.0772 90.7946 24.8592C90.5253 24.6412 90.1918 24.5322 89.7943 24.5322C89.3967 24.5322 89.06 24.6444 88.7843 24.8688C88.515 25.0869 88.3418 25.385 88.2649 25.7634H91.3429Z" fill="#2D2D2D"/>
<path d="M95.7357 28.851C95.3509 28.851 94.995 28.7868 94.668 28.6586C94.3474 28.5239 94.0684 28.3412 93.8312 28.1103C93.6003 27.8731 93.4176 27.5941 93.2829 27.2735C93.1547 26.9529 93.0905 26.6002 93.0905 26.2155C93.0905 25.8307 93.1547 25.478 93.2829 25.1574C93.4176 24.8368 93.6003 24.561 93.8312 24.3302C94.0684 24.0929 94.3474 23.9102 94.668 23.7819C94.995 23.6473 95.3509 23.5799 95.7357 23.5799C96.0627 23.5799 96.3705 23.628 96.6591 23.7242C96.9476 23.814 97.2041 23.9454 97.4286 24.1186C97.6594 24.2917 97.8518 24.5001 98.0057 24.7438C98.1596 24.9875 98.2654 25.2568 98.3231 25.5518H97.2362C97.1015 25.244 96.9027 25.0067 96.6398 24.84C96.3769 24.6668 96.0755 24.5803 95.7357 24.5803C95.5112 24.5803 95.3028 24.622 95.1105 24.7053C94.9181 24.7823 94.7514 24.8945 94.6103 25.042C94.4756 25.1831 94.3698 25.353 94.2929 25.5518C94.2159 25.7506 94.1774 25.9718 94.1774 26.2155C94.1774 26.4527 94.2159 26.6739 94.2929 26.8791C94.3698 27.0779 94.4756 27.2511 94.6103 27.3986C94.7514 27.5396 94.9181 27.6518 95.1105 27.7352C95.3028 27.8122 95.5112 27.8506 95.7357 27.8506C96.0948 27.8506 96.409 27.7577 96.6783 27.5717C96.954 27.3793 97.1464 27.1196 97.2554 26.7926H98.3712C98.2942 27.1068 98.1756 27.3921 98.0153 27.6486C97.855 27.9051 97.6594 28.1232 97.4286 28.3027C97.2041 28.4758 96.9476 28.6105 96.6591 28.7067C96.3705 28.8029 96.0627 28.851 95.7357 28.851Z" fill="#2D2D2D"/>
<path d="M99.4165 23.705H100.513V25.6768H101.023C101.202 25.6768 101.359 25.664 101.494 25.6383C101.629 25.6127 101.744 25.5678 101.84 25.5037C101.943 25.4331 102.033 25.3402 102.11 25.2247C102.187 25.1093 102.254 24.9618 102.312 24.7823L102.668 23.705H103.851L103.322 25.1766C103.136 25.6832 102.882 26.0584 102.562 26.302L104.082 28.7259H102.773L101.523 26.6675C101.452 26.6739 101.379 26.6804 101.302 26.6868C101.231 26.6868 101.154 26.6868 101.071 26.6868H100.513V28.7259H99.4165V23.705Z" fill="#2D2D2D"/>
<path d="M104.992 23.705H106.078V27.0715L108.801 23.705H109.811V28.7259H108.714V25.369L105.992 28.7259H104.992V23.705Z" fill="#2D2D2D"/>
<path d="M111.252 23.705H112.339V27.0715L115.061 23.705H116.071V28.7259H114.975V25.369L112.253 28.7259H111.252V23.705ZM112.214 21.4542H113.022V21.6562C113.022 21.8614 113.077 22.0185 113.186 22.1275C113.301 22.2365 113.458 22.291 113.657 22.291C113.862 22.291 114.019 22.2365 114.128 22.1275C114.244 22.0185 114.301 21.8614 114.301 21.6562V21.4542H115.109V21.7139C115.109 22.1179 114.978 22.4385 114.715 22.6758C114.452 22.9066 114.099 23.0221 113.657 23.0221C113.215 23.0221 112.862 22.9066 112.599 22.6758C112.342 22.4385 112.214 22.1179 112.214 21.7139V21.4542Z" fill="#2D2D2D"/>
<path d="M119.613 23.705H120.709V25.6768H121.219C121.399 25.6768 121.556 25.664 121.69 25.6383C121.825 25.6127 121.94 25.5678 122.037 25.5037C122.139 25.4331 122.229 25.3402 122.306 25.2247C122.383 25.1093 122.45 24.9618 122.508 24.7823L122.864 23.705H124.047L123.518 25.1766C123.332 25.6832 123.079 26.0584 122.758 26.302L124.278 28.7259H122.97L121.719 26.6675C121.649 26.6739 121.575 26.6804 121.498 26.6868C121.427 26.6868 121.35 26.6868 121.267 26.6868H120.709V28.7259H119.613V23.705Z" fill="#2D2D2D"/>
<path d="M124.449 27.7256H124.737C124.949 27.7256 125.106 27.6743 125.209 27.5717C125.318 27.4691 125.382 27.3024 125.401 27.0715L125.68 23.705H129.681V28.7259H128.585V24.7246H126.68L126.478 27.2158C126.434 27.716 126.28 28.0943 126.017 28.3508C125.76 28.6009 125.379 28.7259 124.872 28.7259H124.449V27.7256Z" fill="#2D2D2D"/>
<path d="M131.043 29.6589H131.581C131.735 29.6589 131.867 29.6493 131.976 29.6301C132.085 29.6109 132.178 29.5756 132.255 29.5243C132.332 29.4794 132.396 29.4121 132.447 29.3223C132.505 29.2389 132.556 29.1331 132.601 29.0049L132.755 28.5817L130.418 23.705H131.639L133.284 27.2639L133.813 25.8692L134.631 23.705H135.804L133.553 29.4281C133.457 29.6718 133.355 29.8706 133.246 30.0245C133.136 30.1848 133.008 30.3098 132.861 30.3996C132.713 30.4894 132.543 30.5535 132.351 30.592C132.159 30.6304 131.934 30.6497 131.678 30.6497H131.043V29.6589Z" fill="#2D2D2D"/>
<path d="M138.971 28.851C138.574 28.851 138.208 28.7868 137.875 28.6586C137.541 28.5239 137.253 28.3412 137.009 28.1103C136.772 27.8731 136.586 27.5909 136.451 27.2639C136.323 26.9304 136.259 26.5649 136.259 26.1674V25.4171C136.259 24.8656 136.304 24.3815 136.393 23.9647C136.49 23.5479 136.637 23.192 136.836 22.897C137.035 22.602 137.288 22.3616 137.596 22.1756C137.91 21.9832 138.285 21.8357 138.721 21.7331L141.309 21.1368V22.2429L138.952 22.7816C138.022 22.9932 137.5 23.5286 137.384 24.3879C137.615 24.1635 137.884 23.9903 138.192 23.8685C138.506 23.7467 138.84 23.6857 139.192 23.6857C139.558 23.6857 139.895 23.7499 140.202 23.8781C140.51 24.0064 140.776 24.1859 141.001 24.4168C141.225 24.6412 141.401 24.9105 141.53 25.2247C141.658 25.5389 141.722 25.882 141.722 26.2539C141.722 26.6323 141.655 26.9817 141.52 27.3024C141.385 27.6166 141.196 27.8891 140.953 28.12C140.709 28.3508 140.417 28.5304 140.077 28.6586C139.744 28.7868 139.375 28.851 138.971 28.851ZM137.346 26.2539C137.346 26.4912 137.384 26.7092 137.461 26.908C137.544 27.1004 137.657 27.2671 137.798 27.4082C137.945 27.5492 138.118 27.6583 138.317 27.7352C138.522 27.8122 138.747 27.8506 138.99 27.8506C139.234 27.8506 139.455 27.8122 139.654 27.7352C139.859 27.6583 140.032 27.5492 140.174 27.4082C140.321 27.2671 140.433 27.1004 140.51 26.908C140.594 26.7092 140.635 26.4912 140.635 26.2539C140.635 26.0167 140.594 25.8019 140.51 25.6095C140.433 25.4107 140.321 25.2408 140.174 25.0997C140.032 24.9586 139.859 24.8496 139.654 24.7727C139.455 24.6957 139.234 24.6572 138.99 24.6572C138.747 24.6572 138.522 24.6957 138.317 24.7727C138.118 24.8496 137.945 24.9586 137.798 25.0997C137.657 25.2408 137.544 25.4107 137.461 25.6095C137.384 25.8019 137.346 26.0167 137.346 26.2539Z" fill="#2D2D2D"/>
<path d="M3.88016 22.5299C3.90063 22.5503 3.90063 22.5708 3.9211 22.5708C6.19274 24.9448 8.6895 27.0936 10.8588 29.5495C13.1305 32.1076 15.2179 34.9728 16.2207 38.2677C16.7733 40.0891 16.8756 41.9105 16.63 43.7933C16.5277 44.4686 16.4049 45.144 16.2821 45.7989C16.1593 46.4128 16.9984 46.7403 17.3463 46.2082C18.7789 43.9979 20.8868 40.6621 21.951 38.6974C22.7491 37.2035 23.4859 35.689 24.2022 34.1746C24.8775 32.742 25.3892 31.2481 25.471 29.6518C25.5938 26.9913 24.5092 24.3717 22.7696 22.3866C21.2143 20.6061 19.2701 19.2759 17.2849 17.9866C13.3965 15.4284 8.68951 12.2358 7.78903 7.3037C7.64578 6.50556 7.60485 5.72787 7.62531 4.97066C7.66624 4.13158 6.70438 3.66088 6.06995 4.17251C4.49413 5.46183 3.12295 7.07858 2.07922 8.92046C-0.417542 13.341 0.360137 18.887 3.88016 22.5299Z" fill="url(#paint0_linear_422_975)"/>
<path d="M7.8095 7.30343C7.66624 6.50528 7.62531 5.7276 7.64577 4.97038C7.66624 4.39736 7.23647 4.00852 6.76577 3.96759C5.96762 5.23644 5.2718 6.54621 4.76017 7.91738C4.57598 8.40855 4.41226 8.92018 4.269 9.43181C4.20761 9.65693 4.14621 9.90251 4.10528 10.1481C4.04389 10.496 4.06436 10.3732 4.02342 10.5983C3.9211 11.6011 3.96203 12.3379 4.18714 13.136C4.3304 13.6477 4.37133 13.7705 4.65784 14.2412C4.78063 14.4458 4.90343 14.63 5.04669 14.8347C5.23087 15.1007 5.16948 15.0188 5.31273 15.1826C5.92669 15.8988 6.60204 16.5537 7.3388 17.1677C8.66904 18.2524 10.5109 19.3575 12.1481 20.3398C13.9491 21.4245 15.75 22.5296 17.4077 23.8598C18.9426 25.0878 20.3342 26.5817 21.2143 28.3417C22.3194 30.5111 22.5854 32.8032 22.1966 35.1976C21.5417 39.0041 19.4747 42.2991 17.6942 45.6963C19.1063 43.527 20.9687 40.539 21.951 38.7176C22.7491 37.2237 23.4859 35.7092 24.2022 34.1743C24.8775 32.7418 25.3892 31.2478 25.471 29.6515C25.5938 26.991 24.5092 24.3715 22.7696 22.3863C21.2143 20.6059 19.2701 19.2756 17.2849 17.9863C13.4374 15.4281 8.73043 12.2356 7.8095 7.30343Z" fill="url(#paint1_linear_422_975)"/>
<path d="M22.6282 17.8639C24.9612 19.7263 26.8031 22.1412 27.8059 24.8221C28.2152 25.9068 29.7296 25.9068 30.1389 24.8426C31.0803 22.4072 31.6738 20.156 31.6738 18.2937C31.6738 8.57268 24.4905 0.693549 15.6495 0.693549C15.2197 0.693549 14.8104 0.714013 14.3807 0.754942C12.7434 0.898199 11.3723 2.08519 10.9834 3.68148L10.9834 3.70195C10.5946 5.35963 10.7583 7.07872 11.6588 8.67501C14.0737 12.9318 18.9649 14.9578 22.6282 17.8639Z" fill="url(#paint2_linear_422_975)"/>
<path d="M23.4015 16.2063C25.1839 17.6292 27.5015 19.6925 28.2677 21.7408C28.5804 22.5695 28.8271 22.3512 29.1398 21.5381C29.8591 19.6775 30.3125 17.9575 30.3125 16.5347C30.3125 9.10764 24.8243 3.08785 18.0696 3.08785C17.7413 3.08785 17.4286 3.10348 17.1002 3.13475C15.8494 3.2442 14.8018 4.15108 14.5047 5.37068L14.5047 5.38631C14.2076 6.65282 14.3327 7.96622 15.0207 9.18582C16.8657 12.4381 20.6027 13.986 23.4015 16.2063Z" fill="url(#paint3_linear_422_975)"/>
<path opacity="0.11" d="M18.3048 4.14477C21.2046 5.50399 23.9237 7.27765 26.4758 9.23012C26.5354 9.28574 26.6246 9.17173 26.565 9.11611C24.2985 6.70121 21.4955 5.06356 18.35 4.04116C18.3008 4.02956 18.2556 4.13316 18.3048 4.14477Z" fill="#782200"/>
<path d="M6.68542 29.7539C5.37564 28.4032 4.02493 27.0934 2.67423 25.7632C2.24446 25.3539 1.5691 25.8246 1.79422 26.3567C4.43424 32.4553 8.9366 39.3521 12.0883 43.8545C12.4976 44.4275 13.3776 44.2024 13.4799 43.5066C13.5004 43.2815 13.5413 43.0564 13.5618 42.8312C13.7255 41.0712 13.3776 39.3726 12.6408 37.7354C11.2901 34.6861 9.01846 32.1279 6.68542 29.7539Z" fill="url(#paint4_linear_422_975)"/>
<path d="M7.29355 32.7441C8.76556 34.9521 10.1149 37.2419 11.3211 39.593C12.0367 40.9833 12.7318 42.4553 13.2634 43.9478C13.3656 43.8455 13.4571 43.6762 13.4775 43.4922C13.498 43.2673 13.5395 43.0453 13.56 42.8205C13.7235 41.0622 13.3741 39.373 12.6381 37.7375C11.2887 34.6708 8.99046 32.1103 6.68021 29.7387C5.37175 28.3893 4.0224 27.0809 2.67305 25.752C2.42771 25.5066 2.09348 25.5692 1.88903 25.7941C3.89261 27.9612 5.65797 30.2907 7.29355 32.7441Z" fill="url(#paint5_linear_422_975)"/>
<path d="M6.02945 33.301C6.24778 33.2076 6.21724 32.6467 5.96124 32.0482C5.70523 31.4497 5.3207 31.0402 5.10236 31.1336C4.88403 31.227 4.91457 31.7879 5.17057 32.3864C5.42658 32.9849 5.81111 33.3944 6.02945 33.301Z" fill="#44C1F3"/>
<path d="M6.92595 34.8629C6.80312 34.9393 6.54325 34.7438 6.34313 34.425C6.143 34.1062 6.08566 33.7842 6.20848 33.7077C6.33131 33.6313 6.59118 33.8268 6.7913 34.1456C6.99143 34.4644 7.04877 34.7864 6.92595 34.8629Z" fill="#44C1F3"/>
</g>
<defs>
<linearGradient id="paint0_linear_422_975" x1="18.6973" y1="45.3705" x2="6.82749" y2="5.46319" gradientUnits="userSpaceOnUse">
<stop stop-color="#76ED00"/>
<stop offset="0.526466" stop-color="#5DBB00"/>
<stop offset="1" stop-color="#418300"/>
</linearGradient>
<linearGradient id="paint1_linear_422_975" x1="19.6114" y1="44.6116" x2="6.69692" y2="6.33485" gradientUnits="userSpaceOnUse">
<stop stop-color="#8AE62F"/>
<stop offset="0.526466" stop-color="#8FD04F"/>
<stop offset="1" stop-color="#61B110"/>
</linearGradient>
<linearGradient id="paint2_linear_422_975" x1="30.9458" y1="31.7051" x2="16.2157" y2="-4.31248" gradientUnits="userSpaceOnUse">
<stop stop-color="#EEC6B6"/>
<stop offset="0.180065" stop-color="#E2A085"/>
<stop offset="0.3723" stop-color="#D8805C"/>
<stop offset="0.4892" stop-color="#D0663B"/>
<stop offset="0.6084" stop-color="#CA5221"/>
<stop offset="0.7309" stop-color="#C5430F"/>
<stop offset="0.8585" stop-color="#C33B04"/>
<stop offset="1" stop-color="#962B00"/>
</linearGradient>
<linearGradient id="paint3_linear_422_975" x1="29.7563" y1="26.7812" x2="18.5022" y2="-0.736858" gradientUnits="userSpaceOnUse">
<stop stop-color="#E19E82"/>
<stop offset="0.6084" stop-color="#CA5221"/>
<stop offset="0.815854" stop-color="#C5430F"/>
<stop offset="1" stop-color="#C33B04"/>
</linearGradient>
<linearGradient id="paint4_linear_422_975" x1="12.8586" y1="45.0059" x2="-1.89065" y2="29.4283" gradientUnits="userSpaceOnUse">
<stop stop-color="#44C1F3"/>
<stop offset="0.529965" stop-color="#24A9DE"/>
<stop offset="1" stop-color="#0087BD"/>
</linearGradient>
<linearGradient id="paint5_linear_422_975" x1="12.8551" y1="44.7637" x2="-1.72054" y2="29.3682" gradientUnits="userSpaceOnUse">
<stop stop-color="#71D7FF"/>
<stop offset="0.529965" stop-color="#30B9EF"/>
<stop offset="1" stop-color="#1BABE3"/>
</linearGradient>
<clipPath id="clip0_422_975">
<rect width="191.35" height="46.0469" fill="white" transform="translate(0.488281 0.5)"/>
</clipPath>
</defs>
</svg>
