<svg width="147" height="48" viewBox="0 0 147 48" fill="none" xmlns="http://www.w3.org/2000/svg">
<g clip-path="url(#clip0_145_735)">
<path d="M39.8754 12.4766L21.0078 1.67279L1.97397 12.5718V34.4409L21.0078 45.419L39.8754 34.5368V35.1002H40.8949L21.0078 46.5703L0.976562 35.017V11.9936L21.0078 0.523438L40.7488 11.8274H39.8754V12.4766Z" fill="black"/>
<path d="M41.8711 12.3262C41.8711 13.1525 41.2014 13.8223 40.375 13.8223C39.5487 13.8223 38.8789 13.1525 38.8789 12.3262C38.8789 11.4999 39.5487 10.8301 40.375 10.8301C41.2014 10.8301 41.8711 11.4999 41.8711 12.3262Z" fill="black"/>
<path d="M41.8711 34.7676C41.8711 35.5939 41.2014 36.2637 40.375 36.2637C39.5487 36.2637 38.8789 35.5939 38.8789 34.7676C38.8789 33.9412 39.5487 33.2715 40.375 33.2715C41.2014 33.2715 41.8711 33.9412 41.8711 34.7676Z" fill="black"/>
<path d="M6.84092 16.1203L6.89588 31.5627L20.8492 39.6851L34.7885 31.6372L34.7813 15.463L21.3872 7.72199L21.6355 7.57863L20.886 6.28027L35.7786 14.8873L35.7862 32.2128L20.8473 40.8379L5.90052 32.1374L5.83984 15.0936L6.53469 16.2971L6.84092 16.1203Z" fill="black"/>
<path d="M5.69363 14.0064C6.4092 13.5932 7.3242 13.8384 7.73735 14.554C8.15049 15.2696 7.90531 16.1846 7.18974 16.5977C6.47415 17.0108 5.55915 16.7657 5.146 16.0501C4.73286 15.3345 4.97804 14.4195 5.69363 14.0064Z" fill="black"/>
<path d="M20.2543 5.59962C20.9697 5.18648 21.8848 5.43165 22.2979 6.14723C22.711 6.8628 22.4658 7.7778 21.7504 8.19094C21.0347 8.60408 20.1198 8.35891 19.7065 7.64333C19.2934 6.92776 19.5386 6.01274 20.2543 5.59962Z" fill="black"/>
<path d="M20.8441 13.3173L11.8026 18.5805L11.7651 29.1109L20.8544 34.3588L29.9883 29.08L29.9928 18.5993L30.4702 18.8749L30.9905 17.9737L30.9854 29.6557L20.8547 35.5106L10.7656 29.6856L10.8072 18.0058L20.6985 12.248L20.2719 12.9869L20.8441 13.3173Z" fill="black"/>
<path d="M21.473 11.272C22.1885 11.6851 22.4337 12.6001 22.0206 13.3157C21.6075 14.0313 20.6924 14.2765 19.9769 13.8633C19.2613 13.4502 19.0161 12.5352 19.4292 11.8196C19.8424 11.104 20.7574 10.8588 21.473 11.272Z" fill="black"/>
<path d="M31.3069 16.9497C32.0225 17.3628 32.2677 18.2779 31.8545 18.9934C31.4414 19.709 30.5264 19.9542 29.8108 19.541C29.0951 19.1279 28.8501 18.2129 29.2632 17.4973C29.6763 16.7818 30.5912 16.5366 31.3069 16.9497Z" fill="black"/>
<path d="M49.1354 14.9253V14.0488H49.619C49.8055 14.0488 49.9616 14.0122 50.0876 13.9392C50.2159 13.8662 50.3218 13.7717 50.4049 13.6558C50.4905 13.54 50.561 13.4191 50.6164 13.2932L50.7374 13.006L48.0625 7.08203H49.075L51.2058 11.8877L53.1553 7.08203H54.1527L51.4778 13.5652C51.3721 13.807 51.2512 14.0311 51.1151 14.2377C50.9816 14.4442 50.799 14.6104 50.5673 14.7364C50.3381 14.8623 50.0271 14.9253 49.6341 14.9253H49.1354ZM61.1543 7.08203V14.8195H60.2174V7.9132H56.3185V14.8195H55.3815V7.08203H61.1543ZM63.0444 14.8195V7.08203H65.6587C66.2658 7.08203 66.7619 7.1916 67.1474 7.41073C67.5352 7.62733 67.8223 7.92077 68.0086 8.29102C68.1951 8.66126 68.2882 9.07433 68.2882 9.53021C68.2882 9.98609 68.1951 10.4004 68.0086 10.7732C67.8248 11.146 67.5402 11.4432 67.1548 11.6648C66.7695 11.8839 66.2758 11.9935 65.6738 11.9935H63.7999V11.1623H65.6436C66.0592 11.1623 66.393 11.0906 66.6448 10.947C66.8967 10.8034 67.0792 10.6095 67.1926 10.3652C67.3084 10.1183 67.3664 9.84002 67.3664 9.53021C67.3664 9.22042 67.3084 8.94336 67.1926 8.69904C67.0792 8.45473 66.8953 8.26331 66.641 8.12479C66.3867 7.98374 66.0492 7.9132 65.6285 7.9132H63.9813V14.8195H63.0444ZM69.3254 14.8195H68.3431L71.1842 7.08203H72.1513L74.9924 14.8195H74.0102L71.698 8.30613H71.6375L69.3254 14.8195ZM69.6881 11.797H73.6474V12.6282H69.6881V11.797ZM76.1976 14.8195V7.08203H78.9026C79.4417 7.08203 79.8862 7.17524 80.2363 7.36162C80.5864 7.54548 80.847 7.79356 81.0184 8.10588C81.1897 8.4157 81.2753 8.7595 81.2753 9.1373C81.2753 9.46977 81.2161 9.74431 81.0977 9.96091C80.9819 10.1775 80.8283 10.3488 80.6368 10.4747C80.4479 10.6007 80.2426 10.6939 80.021 10.7543V10.8299C80.2577 10.845 80.4958 10.9281 80.735 11.0792C80.9744 11.2303 81.1745 11.4469 81.3358 11.729C81.497 12.0111 81.5775 12.3562 81.5775 12.7642C81.5775 13.1521 81.4894 13.5009 81.313 13.8107C81.1368 14.1206 80.8585 14.3661 80.4782 14.5475C80.0978 14.7288 79.6029 14.8195 78.9934 14.8195H76.1976ZM77.1345 13.9883H78.9934C79.6054 13.9883 80.0398 13.8699 80.2968 13.6332C80.5561 13.3939 80.686 13.1042 80.686 12.7642C80.686 12.5023 80.6191 12.2605 80.4857 12.0388C80.3522 11.8147 80.162 11.6359 79.9151 11.5024C79.6684 11.3664 79.3762 11.2983 79.0387 11.2983H77.1345V13.9883ZM77.1345 10.4823H78.8725C79.1546 10.4823 79.409 10.4269 79.6357 10.3161C79.8648 10.2052 80.0461 10.0491 80.1796 9.84757C80.3156 9.64608 80.3838 9.40931 80.3838 9.1373C80.3838 8.79727 80.2652 8.50889 80.0285 8.27212C79.7918 8.03284 79.4164 7.9132 78.9026 7.9132H77.1345V10.4823ZM82.4522 14.8195V13.9581H82.6788C83.0013 13.9581 83.2518 13.8548 83.4307 13.6483C83.6095 13.4418 83.738 13.108 83.816 12.6471C83.8966 12.1862 83.9508 11.5754 83.9786 10.8148L84.1145 7.08203H88.8294V14.8195H87.8925V7.9132H85.0061L84.8852 10.9961C84.855 11.8071 84.7806 12.4972 84.6623 13.0665C84.5439 13.6357 84.3361 14.0702 84.0389 14.3699C83.7417 14.6696 83.3085 14.8195 82.7393 14.8195H82.4522ZM90.7016 14.8195V7.08203H95.3713V7.9132H91.6385V10.5276H95.1294V11.3588H91.6385V13.9883H95.4316V14.8195H90.7016ZM97.06 14.8195V7.08203H97.9969V10.5276H102.123V7.08203H103.06V14.8195H102.123V11.3588H97.9969V14.8195H97.06ZM104.935 7.08203H105.857V13.1723H105.933L110.164 7.08203H111.071V14.8195H110.134V8.74437H110.058L105.842 14.8195H104.935V7.08203ZM112.946 14.8195V7.08203H117.615V7.9132H113.883V10.5276H117.374V11.3588H113.883V13.9883H117.676V14.8195H112.946ZM55.3012 26.0629L55.1954 28.7832H54.2283V26.9546H53.6842V26.0629H55.3012ZM48.7274 26.9546V19.2172H49.619V26.0932H53.6086V19.2172H54.5003V26.9546H48.7274ZM56.717 19.2172H57.6389V25.3074H57.7144L61.9459 19.2172H62.8525V26.9546H61.9156V20.8796H61.84L57.6238 26.9546H56.717V19.2172ZM67.3872 20.139H68.6112C69.1855 20.139 69.6956 20.2675 70.1414 20.5243C70.5872 20.7813 70.9373 21.1389 71.1917 21.5974C71.446 22.0557 71.5733 22.5871 71.5733 23.1917C71.5733 23.7961 71.446 24.3289 71.1917 24.7897C70.9373 25.2507 70.5872 25.6109 70.1414 25.8702C69.6956 26.1297 69.1855 26.2594 68.6112 26.2594H67.3872C66.8129 26.2594 66.3029 26.1309 65.857 25.8741C65.4112 25.6172 65.0611 25.2595 64.8068 24.801C64.5524 24.3427 64.4253 23.8113 64.4253 23.2068C64.4253 22.6022 64.5524 22.0696 64.8068 21.6087C65.0611 21.1477 65.4112 20.7876 65.857 20.5281C66.3029 20.2686 66.8129 20.139 67.3872 20.139ZM67.3872 20.9702C66.9489 20.9702 66.5787 21.0621 66.2764 21.2459C65.9767 21.4298 65.7488 21.6893 65.5926 22.0242C65.439 22.3592 65.3622 22.7533 65.3622 23.2068C65.3622 23.6552 65.439 24.0455 65.5926 24.378C65.7488 24.7104 65.9767 24.9686 66.2764 25.1524C66.5787 25.3363 66.9489 25.4282 67.3872 25.4282H68.6112C69.0496 25.4282 69.4184 25.3363 69.7182 25.1524C70.0205 24.9686 70.2485 24.7091 70.4021 24.3741C70.5583 24.0392 70.6363 23.645 70.6363 23.1917C70.6363 22.7434 70.5583 22.3529 70.4021 22.0204C70.2485 21.6879 70.0205 21.4298 69.7182 21.2459C69.4184 21.0621 69.0496 20.9702 68.6112 20.9702H67.3872ZM68.4752 19.0811V27.2719H67.5383V19.0811H68.4752ZM73.1431 26.9546V19.2172H75.7575C76.3645 19.2172 76.8606 19.3268 77.2461 19.5459C77.6339 19.7625 77.921 20.0559 78.1073 20.4261C78.2939 20.7964 78.3869 21.2094 78.3869 21.6653C78.3869 22.1212 78.2939 22.5356 78.1073 22.9083C77.9235 23.2811 77.6389 23.5782 77.2536 23.8C76.8682 24.0191 76.3745 24.1286 75.7726 24.1286H73.8986V23.2974H75.7423C76.1579 23.2974 76.4917 23.2256 76.7436 23.0822C76.9954 22.9385 77.1779 22.7445 77.2913 22.5003C77.4072 22.2535 77.4652 21.975 77.4652 21.6653C77.4652 21.3555 77.4072 21.0785 77.2913 20.8342C77.1779 20.5898 76.9941 20.3985 76.7397 20.2598C76.4854 20.1189 76.1479 20.0484 75.7272 20.0484H74.08V26.9546H73.1431ZM86.4247 23.0858C86.4247 23.9019 86.2774 24.6072 85.9827 25.2016C85.6881 25.7959 85.2838 26.2544 84.77 26.5767C84.2562 26.8992 83.6694 27.0603 83.0094 27.0603C82.3495 27.0603 81.7627 26.8992 81.2488 26.5767C80.735 26.2544 80.3307 25.7959 80.0362 25.2016C79.7414 24.6072 79.5941 23.9019 79.5941 23.0858C79.5941 22.2698 79.7414 21.5646 80.0362 20.9702C80.3307 20.3757 80.735 19.9174 81.2488 19.5949C81.7627 19.2726 82.3495 19.1113 83.0094 19.1113C83.6694 19.1113 84.2562 19.2726 84.77 19.5949C85.2838 19.9174 85.6881 20.3757 85.9827 20.9702C86.2774 21.5646 86.4247 22.2698 86.4247 23.0858ZM85.5181 23.0858C85.5181 22.4159 85.406 21.8504 85.1818 21.3896C84.9602 20.9286 84.6591 20.5798 84.2788 20.3429C83.9011 20.1062 83.4779 19.9879 83.0094 19.9879C82.541 19.9879 82.1166 20.1062 81.7362 20.3429C81.3584 20.5798 81.0575 20.9286 80.8333 21.3896C80.6117 21.8504 80.5008 22.4159 80.5008 23.0858C80.5008 23.7559 80.6117 24.3213 80.8333 24.7822C81.0575 25.2432 81.3584 25.592 81.7362 25.8287C82.1166 26.0656 82.541 26.1839 83.0094 26.1839C83.4779 26.1839 83.9011 26.0656 84.2788 25.8287C84.6591 25.592 84.9602 25.2432 85.1818 24.7822C85.406 24.3213 85.5181 23.7559 85.5181 23.0858ZM88.0003 26.9546V19.2172H90.7052C91.2443 19.2172 91.6888 19.3103 92.0389 19.4967C92.389 19.6805 92.6497 19.9287 92.8211 20.241C92.9923 20.5507 93.0779 20.8945 93.0779 21.2724C93.0779 21.6048 93.0187 21.8795 92.9004 22.0961C92.7845 22.3127 92.6309 22.4839 92.4394 22.6099C92.2505 22.7357 92.0452 22.829 91.8237 22.8893V22.965C92.0604 22.9801 92.2984 23.0632 92.5376 23.2143C92.777 23.3654 92.9772 23.582 93.1384 23.8641C93.2996 24.1462 93.3801 24.4913 93.3801 24.8993C93.3801 25.2873 93.292 25.636 93.1156 25.9459C92.9394 26.2556 92.6611 26.5013 92.2808 26.6826C91.9005 26.864 91.4056 26.9546 90.796 26.9546H88.0003ZM88.9372 26.1234H90.796C91.4081 26.1234 91.8424 26.0051 92.0994 25.7683C92.3588 25.529 92.4886 25.2394 92.4886 24.8993C92.4886 24.6374 92.4218 24.3956 92.2883 24.174C92.1548 23.9497 91.9646 23.7709 91.7178 23.6374C91.4711 23.5014 91.1788 23.4334 90.8414 23.4334H88.9372V26.1234ZM88.9372 22.6174H90.6751C90.9572 22.6174 91.2116 22.562 91.4383 22.4511C91.6674 22.3403 91.8488 22.1842 91.9822 21.9827C92.1182 21.7812 92.1864 21.5445 92.1864 21.2724C92.1864 20.9324 92.0679 20.644 91.8311 20.4073C91.5944 20.1679 91.2191 20.0484 90.7052 20.0484H88.9372V22.6174ZM101.448 23.0858C101.448 23.9019 101.301 24.6072 101.006 25.2016C100.712 25.7959 100.307 26.2544 99.7934 26.5767C99.2796 26.8992 98.6928 27.0603 98.0328 27.0603C97.3729 27.0603 96.7861 26.8992 96.2722 26.5767C95.7584 26.2544 95.3541 25.7959 95.0596 25.2016C94.7648 24.6072 94.6176 23.9019 94.6176 23.0858C94.6176 22.2698 94.7648 21.5646 95.0596 20.9702C95.3541 20.3757 95.7584 19.9174 96.2722 19.5949C96.7861 19.2726 97.3729 19.1113 98.0328 19.1113C98.6928 19.1113 99.2796 19.2726 99.7934 19.5949C100.307 19.9174 100.712 20.3757 101.006 20.9702C101.301 21.5646 101.448 22.2698 101.448 23.0858ZM100.541 23.0858C100.541 22.4159 100.429 21.8504 100.205 21.3896C99.9836 20.9286 99.6825 20.5798 99.3022 20.3429C98.9245 20.1062 98.5013 19.9879 98.0328 19.9879C97.5644 19.9879 97.14 20.1062 96.7596 20.3429C96.3818 20.5798 96.0809 20.9286 95.8567 21.3896C95.6351 21.8504 95.5242 22.4159 95.5242 23.0858C95.5242 23.7559 95.6351 24.3213 95.8567 24.7822C96.0809 25.2432 96.3818 25.592 96.7596 25.8287C97.14 26.0656 97.5644 26.1839 98.0328 26.1839C98.5013 26.1839 98.9245 26.0656 99.3022 25.8287C99.6825 25.592 99.9836 25.2432 100.205 24.7822C100.429 24.3213 100.541 23.7559 100.541 23.0858ZM103.024 19.2172H103.945V25.3074H104.021L108.252 19.2172H109.159V26.9546H108.222V20.8796H108.147L103.93 26.9546H103.024V19.2172ZM106.832 17.2827H107.663C107.663 17.6908 107.522 18.0245 107.24 18.284C106.958 18.5435 106.575 18.6731 106.091 18.6731C105.615 18.6731 105.236 18.5435 104.954 18.284C104.675 18.0245 104.535 17.6908 104.535 17.2827H105.366C105.366 17.4792 105.42 17.6518 105.529 17.8004C105.639 17.949 105.827 18.0233 106.091 18.0233C106.356 18.0233 106.545 17.949 106.658 17.8004C106.774 17.6518 106.832 17.4792 106.832 17.2827ZM48.3042 32.1835V31.3523H54.1073V32.1835H51.6743V39.0897H50.7374V32.1835H48.3042ZM55.5533 39.0897V31.3523H58.1679C58.7748 31.3523 59.271 31.4619 59.6563 31.681C60.0442 31.8976 60.3314 32.191 60.5178 32.5612C60.7041 32.9315 60.7974 33.3445 60.7974 33.8004C60.7974 34.2563 60.7041 34.6707 60.5178 35.0434C60.3339 35.4162 60.0493 35.7133 59.664 35.9351C59.2785 36.1541 58.7849 36.2637 58.1828 36.2637H56.309V35.4325H58.1528C58.5683 35.4325 58.902 35.3607 59.1538 35.2173C59.4058 35.0736 59.5883 34.8796 59.7017 34.6354C59.8176 34.3886 59.8754 34.1101 59.8754 33.8004C59.8754 33.4906 59.8176 33.2136 59.7017 32.9693C59.5883 32.7249 59.4045 32.5336 59.1502 32.3949C58.8957 32.254 58.5582 32.1835 58.1376 32.1835H56.4904V39.0897H55.5533ZM61.8343 39.0897H60.8521L63.6932 31.3523H64.6603L67.5014 39.0897H66.5192L64.207 32.5763H64.1465L61.8343 39.0897ZM62.1971 36.0672H66.1564V36.8984H62.1971V36.0672ZM68.7066 39.0897V31.3523H69.6437V34.7978H73.7693V31.3523H74.7062V39.0897H73.7693V35.629H69.6437V39.0897H68.7066ZM82.8083 33.7702H81.8712C81.8159 33.5007 81.7189 33.264 81.5803 33.0599C81.4443 32.8559 81.2781 32.6847 81.0816 32.546C80.8878 32.4051 80.6723 32.2993 80.4356 32.2287C80.1989 32.1582 79.952 32.123 79.6952 32.123C79.2266 32.123 78.8022 32.2413 78.4219 32.478C78.0442 32.7149 77.7431 33.0637 77.519 33.5247C77.2973 33.9855 77.1866 34.551 77.1866 35.2209C77.1866 35.891 77.2973 36.4564 77.519 36.9173C77.7431 37.3783 78.0442 37.7271 78.4219 37.9638C78.8022 38.2007 79.2266 38.319 79.6952 38.319C79.952 38.319 80.1989 38.2838 80.4356 38.2131C80.6723 38.1426 80.8878 38.0381 81.0816 37.8996C81.2781 37.7585 81.4443 37.5861 81.5803 37.382C81.7189 37.1755 81.8159 36.9388 81.8712 36.6718H82.8083C82.7378 37.0671 82.6093 37.421 82.4229 37.7334C82.2364 38.0457 82.0047 38.3114 81.7278 38.5305C81.4506 38.7471 81.1396 38.9121 80.7945 39.0255C80.4521 39.1387 80.0855 39.1954 79.6952 39.1954C79.0353 39.1954 78.4485 39.0343 77.9346 38.7118C77.4208 38.3895 77.0165 37.931 76.7218 37.3367C76.427 36.7423 76.2798 36.037 76.2798 35.2209C76.2798 34.4049 76.427 33.6997 76.7218 33.1052C77.0165 32.5108 77.4208 32.0525 77.9346 31.73C78.4485 31.4077 79.0353 31.2464 79.6952 31.2464C80.0855 31.2464 80.4521 31.3031 80.7945 31.4165C81.1396 31.5298 81.4506 31.6961 81.7278 31.9152C82.0047 32.1318 82.2364 32.3963 82.4229 32.7086C82.6093 33.0183 82.7378 33.3722 82.8083 33.7702ZM86.9821 32.2741H88.2061C88.7804 32.2741 89.2904 32.4026 89.7363 32.6594C90.1821 32.9164 90.5322 33.274 90.7865 33.7324C91.0409 34.1908 91.1682 34.7222 91.1682 35.3268C91.1682 35.9312 91.0409 36.464 90.7865 36.9248C90.5322 37.3858 90.1821 37.746 89.7363 38.0053C89.2904 38.2648 88.7804 38.3945 88.2061 38.3945H86.9821C86.4077 38.3945 85.8977 38.266 85.4519 38.0092C85.0061 37.7523 84.656 37.3946 84.4016 36.9361C84.1473 36.4778 84.0201 35.9464 84.0201 35.3419C84.0201 34.7373 84.1473 34.2047 84.4016 33.7438C84.656 33.2828 85.0061 32.9227 85.4519 32.6632C85.8977 32.4037 86.4077 32.2741 86.9821 32.2741ZM86.9821 33.1052C86.5437 33.1052 86.1735 33.1972 85.8713 33.381C85.5716 33.5649 85.3437 33.8244 85.1874 34.1593C85.0338 34.4943 84.957 34.8884 84.957 35.3419C84.957 35.7903 85.0338 36.1806 85.1874 36.513C85.3437 36.8455 85.5716 37.1037 85.8713 37.2875C86.1735 37.4714 86.5437 37.5633 86.9821 37.5633H88.2061C88.6444 37.5633 89.0133 37.4714 89.313 37.2875C89.6154 37.1037 89.8433 36.8442 89.9969 36.5092C90.1532 36.1743 90.2311 35.7801 90.2311 35.3268C90.2311 34.8785 90.1532 34.488 89.9969 34.1555C89.8433 33.823 89.6154 33.5649 89.313 33.381C89.0133 33.1972 88.6444 33.1052 88.2061 33.1052H86.9821ZM88.0701 31.2162V39.407H87.1332V31.2162H88.0701ZM99.2663 35.2209C99.2663 36.037 99.119 36.7423 98.8243 37.3367C98.5297 37.931 98.1254 38.3895 97.6116 38.7118C97.0978 39.0343 96.511 39.1954 95.851 39.1954C95.1911 39.1954 94.6043 39.0343 94.0904 38.7118C93.5766 38.3895 93.1723 37.931 92.8777 37.3367C92.583 36.7423 92.4357 36.037 92.4357 35.2209C92.4357 34.4049 92.583 33.6997 92.8777 33.1052C93.1723 32.5108 93.5766 32.0525 94.0904 31.73C94.6043 31.4077 95.1911 31.2464 95.851 31.2464C96.511 31.2464 97.0978 31.4077 97.6116 31.73C98.1254 32.0525 98.5297 32.5108 98.8243 33.1052C99.119 33.6997 99.2663 34.4049 99.2663 35.2209ZM98.3596 35.2209C98.3596 34.551 98.2476 33.9855 98.0234 33.5247C97.8018 33.0637 97.5007 32.7149 97.1204 32.478C96.7427 32.2413 96.3195 32.123 95.851 32.123C95.3826 32.123 94.9582 32.2413 94.5778 32.478C94.2 32.7149 93.8991 33.0637 93.6748 33.5247C93.4532 33.9855 93.3424 34.551 93.3424 35.2209C93.3424 35.891 93.4532 36.4564 93.6748 36.9173C93.8991 37.3783 94.2 37.7271 94.5778 37.9638C94.9582 38.2007 95.3826 38.319 95.851 38.319C96.3195 38.319 96.7427 38.2007 97.1204 37.9638C97.5007 37.7271 97.8018 37.3783 98.0234 36.9173C98.2476 36.4564 98.3596 35.891 98.3596 35.2209ZM100.842 39.0897V31.3523H103.456C104.063 31.3523 104.559 31.4619 104.945 31.681C105.333 31.8976 105.62 32.191 105.806 32.5612C105.993 32.9315 106.086 33.3445 106.086 33.8004C106.086 34.2563 105.993 34.6707 105.806 35.0434C105.622 35.4162 105.338 35.7133 104.952 35.9351C104.567 36.1541 104.073 36.2637 103.471 36.2637H101.597V35.4325H103.441C103.857 35.4325 104.19 35.3607 104.442 35.2173C104.694 35.0736 104.877 34.8796 104.99 34.6354C105.106 34.3886 105.164 34.1101 105.164 33.8004C105.164 33.4906 105.106 33.2136 104.99 32.9693C104.877 32.7249 104.693 32.5336 104.439 32.3949C104.184 32.254 103.847 32.1835 103.426 32.1835H101.779V39.0897H100.842ZM107.595 31.3523H108.713L111.343 37.7749H111.434L114.063 31.3523H115.181V39.0897H114.305V33.211H114.229L111.811 39.0897H110.965L108.547 33.211H108.472V39.0897H107.595V31.3523ZM117.377 39.0897H116.395L119.236 31.3523H120.203L123.044 39.0897H122.062L119.75 32.5763H119.689L117.377 39.0897ZM117.74 36.0672H121.699V36.8984H117.74V36.0672ZM130.824 38.198L130.718 40.9183H129.75V39.0897H129.206V38.198H130.824ZM124.25 39.0897V31.3523H125.141V38.2283H129.131V31.3523H130.023V39.0897H124.25ZM132.239 31.3523H133.161V37.4425H133.237L137.468 31.3523H138.375V39.0897H137.438V33.0147H137.362L133.146 39.0897H132.239V31.3523ZM140.25 31.3523H141.172V37.4425H141.247L145.479 31.3523H146.385V39.0897H145.448V33.0147H145.373L141.156 39.0897H140.25V31.3523Z" fill="black"/>
</g>
<defs>
<clipPath id="clip0_145_735">
<rect width="146" height="47" fill="white" transform="translate(0.488281 0.0234375)"/>
</clipPath>
</defs>
</svg>
