<svg width="332" height="327" viewBox="0 0 332 327" fill="none" xmlns="http://www.w3.org/2000/svg">
<circle cx="167.5" cy="163.5" r="163.021" stroke="#BAE4F6" stroke-width="0.957821"/>
<path d="M311.447 85.898C301.257 66.9994 287.443 50.2931 270.796 36.733C254.149 23.1728 234.993 13.0244 214.424 6.86711L214.201 7.61217C234.673 13.7402 253.737 23.8403 270.305 37.336C286.873 50.8316 300.62 67.4584 310.763 86.2671L311.447 85.898Z" stroke="#7FB04E" stroke-width="5.55536"/>
<path d="M311.447 85.898C301.257 66.9994 287.443 50.2931 270.796 36.733C254.149 23.1728 234.993 13.0244 214.424 6.86711L214.201 7.61217C234.673 13.7402 253.737 23.8403 270.305 37.336C286.873 50.8316 300.62 67.4584 310.763 86.2671L311.447 85.898Z" stroke="#7FB04E" stroke-width="5.55536"/>
<path d="M15.2364 104.029C3.25499 134.713 0.821025 168.3 8.25339 200.391C15.6858 232.482 32.6378 261.579 56.8888 283.871L57.4151 283.299C33.2795 261.112 16.4081 232.154 9.01106 200.216C1.61405 168.278 4.03643 134.85 15.9609 104.312L15.2364 104.029Z" stroke="#85D1F1" stroke-width="7.471"/>
<path d="M15.2364 104.029C3.25499 134.713 0.821025 168.3 8.25339 200.391C15.6858 232.482 32.6378 261.579 56.8888 283.871L57.4151 283.299C33.2795 261.112 16.4081 232.154 9.01106 200.216C1.61405 168.278 4.03643 134.85 15.9609 104.312L15.2364 104.029Z" stroke="#BDBEC3" stroke-width="7.471"/>
<path d="M15.2364 104.029C3.25499 134.713 0.821025 168.3 8.25339 200.391C15.6858 232.482 32.6378 261.579 56.8888 283.871L57.4151 283.299C33.2795 261.112 16.4081 232.154 9.01106 200.216C1.61405 168.278 4.03643 134.85 15.9609 104.312L15.2364 104.029Z" stroke="#2397C9" stroke-width="7.471"/>
<circle cx="272.697" cy="38.6425" r="8.48955" fill="#7FB04E" stroke="#7FB04E" stroke-width="5.55536"/>
<circle cx="320.257" cy="106.257" r="2.43665" fill="#7FB04E" stroke="#7FB04E" stroke-width="3.63972"/>
<circle cx="68.2565" cy="293.257" r="2.43665" fill="#2397C9" stroke="#2397C9" stroke-width="3.63972"/>
</svg>
