<svg width="25" height="25" viewBox="0 0 25 25" fill="none" xmlns="http://www.w3.org/2000/svg">
<g id="ion:camera">
<path id="Vector" d="M12.5 16.25C14.1569 16.25 15.5 14.9069 15.5 13.25C15.5 11.5931 14.1569 10.25 12.5 10.25C10.8431 10.25 9.5 11.5931 9.5 13.25C9.5 14.9069 10.8431 16.25 12.5 16.25Z" fill="#525252"/>
<path id="Vector_2" d="M20.75 7.25H17.9844C17.8438 7.25 17.6694 7.15906 17.5334 7.01562L16.3175 5.09656C16.2983 5.06611 16.2768 5.03712 16.2533 5.00984C15.8333 4.52 15.2656 4.25 14.6562 4.25H10.3438C9.73438 4.25 9.16672 4.52 8.74672 5.00984C8.7232 5.03712 8.70173 5.06611 8.6825 5.09656L7.46656 7.01844C7.3625 7.13187 7.21625 7.25281 7.0625 7.25281V6.87781C7.0625 6.6789 6.98348 6.48813 6.84283 6.34748C6.70218 6.20683 6.51141 6.12781 6.3125 6.12781H5.1875C4.98859 6.12781 4.79782 6.20683 4.65717 6.34748C4.51652 6.48813 4.4375 6.6789 4.4375 6.87781V7.25281H4.25C3.65345 7.25343 3.08152 7.49069 2.6597 7.91251C2.23787 8.33433 2.00062 8.90627 2 9.50281V18.5C2.00062 19.0965 2.23787 19.6685 2.6597 20.0903C3.08152 20.5121 3.65345 20.7494 4.25 20.75H20.75C21.3465 20.7494 21.9185 20.5121 22.3403 20.0903C22.7621 19.6685 22.9994 19.0965 23 18.5V9.5C22.9994 8.90345 22.7621 8.33152 22.3403 7.90969C21.9185 7.48787 21.3465 7.25062 20.75 7.25ZM12.5 17.75C11.61 17.75 10.74 17.4861 9.99993 16.9916C9.25991 16.4971 8.68314 15.7943 8.34254 14.9721C8.00195 14.1498 7.91283 13.245 8.08647 12.3721C8.2601 11.4992 8.68868 10.6974 9.31802 10.068C9.94736 9.43868 10.7492 9.0101 11.6221 8.83647C12.495 8.66283 13.3998 8.75195 14.2221 9.09254C15.0443 9.43314 15.7471 10.0099 16.2416 10.7499C16.7361 11.49 17 12.36 17 13.25C16.9986 14.4431 16.5241 15.5869 15.6805 16.4305C14.8369 17.2741 13.6931 17.7486 12.5 17.75Z" fill="#525252"/>
</g>
</svg>
