<svg xmlns="http://www.w3.org/2000/svg" width="21" height="21" viewBox="0 0 21 21" fill="none">
  <path fill-rule="evenodd" clip-rule="evenodd" d="M1.37789 0.711031C1.87911 0.192003 2.68521 0.198213 3.17838 0.724903L10.6196 8.67203L18.1824 0.840503C18.6837 0.321476 19.4898 0.327686 19.9829 0.854376C20.4761 1.38106 20.4696 2.22879 19.9683 2.74781L12.4055 10.5793L19.8468 18.5265C20.3399 19.0531 20.3334 19.9009 19.8322 20.4199C19.331 20.9389 18.5249 20.9327 18.0317 20.406L10.5904 12.4589L3.02763 20.2904C2.52641 20.8095 1.72031 20.8032 1.22714 20.2766C0.733981 19.7499 0.740513 18.9021 1.24173 18.3831L8.80455 10.5516L1.3633 2.60447C0.870138 2.07778 0.87667 1.23006 1.37789 0.711031Z" fill="black"
  ></path>
</svg>